<svg width="32" height="32" viewBox="0 0 32 32" fill="none" xmlns="http://www.w3.org/2000/svg">
<path d="M3.33338 24.6667L3.33338 17.4444L4.46974 17.4444L4.46974 16L5.6061 16L5.6061 14.5556L6.74247 14.5556L6.74247 13.1111L7.87883 13.1111L7.87883 11.6667L9.0152 11.6667L9.0152 10.2222L10.1516 10.2222L10.1516 8.77778L11.2879 8.77778L11.2879 7.33333L12.4243 7.33334L12.4243 5.88889L13.5607 5.88889L13.5607 4.44445L14.697 4.44445L14.697 3L16.9697 3L16.9697 4.44445L18.1061 4.44445L18.1061 5.88889L19.2425 5.88889L19.2425 7.33334L20.3788 7.33334L20.3788 8.77778L21.5152 8.77778L21.5152 10.2222L22.6516 10.2222L22.6516 11.6667L23.7879 11.6667L23.7879 13.1111L24.9243 13.1111L24.9243 14.5556L26.0607 14.5556L26.0607 16L27.197 16L27.197 17.4444L28.3334 17.4444L28.3334 24.6667L27.197 24.6667L27.197 26.1111L26.0607 26.1111L26.0607 27.5556L24.9243 27.5556L24.9243 29L18.1061 29L18.1061 27.5556L16.9697 27.5556L16.9697 26.1111L14.697 26.1111L14.697 27.5556L13.5606 27.5556L13.5606 29L6.74247 29L6.74247 27.5556L5.6061 27.5556L5.6061 26.1111L4.46974 26.1111L4.46974 24.6667L3.33338 24.6667Z" fill="#F11D60"/>
</svg>
