<svg width="455" height="142" viewBox="0 0 455 142" fill="none" xmlns="http://www.w3.org/2000/svg">
<g clip-path="url(#clip0_23_799)">
<path d="M181 12.9297C178.69 12.9297 176.38 12.9297 174 12.9297C174 17.7022 174 22.4748 174 27.3919C171.69 27.3919 169.38 27.3919 167 27.3919C167 25.0879 167 22.784 167 20.4102C164.69 20.4102 162.38 20.4102 160 20.4102C160 25.0181 160 29.6261 160 34.3737C162.31 34.3737 164.62 34.3737 167 34.3737C167 36.6777 167 38.9817 167 41.3555C164.69 41.3555 162.38 41.3555 160 41.3555C160 43.6595 160 45.9634 160 48.3372C158.855 48.327 157.711 48.3167 156.531 48.3061C155.354 48.2955 154.177 48.301 153 48.3372C152.5 48.8359 152.5 48.8359 152.451 50.3028C152.467 51.9749 152.484 53.6469 152.5 55.319C150.19 55.319 147.88 55.319 145.5 55.319C145.5 60.0915 145.5 64.8641 145.5 69.7812C143.19 69.7812 140.88 69.7812 138.5 69.7812C138.5 74.3892 138.5 78.9972 138.5 83.7448C136.19 83.7448 133.88 83.7448 131.5 83.7448C131.5 86.2133 131.5 88.6819 131.5 91.2253C129.19 91.2253 126.88 91.2253 124.5 91.2253C124.5 98.3018 124.5 105.378 124.5 112.669C126.81 112.669 129.12 112.669 131.5 112.669C131.5 114.973 131.5 117.277 131.5 119.651C138.595 119.651 145.69 119.651 153 119.651C153 117.347 153 115.043 153 112.669C155.31 112.669 157.62 112.669 160 112.669C160 110.201 160 107.732 160 105.189C164.62 105.189 169.24 105.189 174 105.189C174 102.885 174 100.581 174 98.207C181.095 98.207 188.19 98.207 195.5 98.207C195.5 100.676 195.5 103.144 195.5 105.687C197.81 105.687 200.12 105.687 202.5 105.687C202.5 114.903 202.5 124.119 202.5 133.615C204.81 133.615 207.12 133.615 209.5 133.615C209.5 152.376 209.5 171.137 209.5 190.466C211.81 190.466 214.12 190.466 216.5 190.466C216.5 192.606 216.5 194.745 216.5 196.949C214.19 196.949 211.88 196.949 209.5 196.949C209.5 201.722 209.5 206.494 209.5 211.411C207.19 211.411 204.88 211.411 202.5 211.411C202.5 213.715 202.5 216.019 202.5 218.393C197.715 218.393 192.93 218.393 188 218.393C188 220.697 188 223.001 188 225.375C185.69 225.375 183.38 225.375 181 225.375C181 232.616 181 239.857 181 247.318C183.475 247.318 185.95 247.318 188.5 247.318C188.5 254.23 188.5 261.142 188.5 268.263C190.81 268.263 193.12 268.263 195.5 268.263C195.5 273.036 195.5 277.808 195.5 282.725C197.81 282.725 200.12 282.725 202.5 282.725C202.5 285.029 202.5 287.333 202.5 289.707C204.81 289.707 207.12 289.707 209.5 289.707C209.5 292.011 209.5 294.315 209.5 296.689C211.975 296.689 214.45 296.689 217 296.689C217 298.993 217 301.297 217 303.671C223.93 303.671 230.86 303.671 238 303.671C238 296.594 238 289.518 238 282.227C235.69 282.227 233.38 282.227 231 282.227C231 279.923 231 277.619 231 275.245C226.38 275.245 221.76 275.245 217 275.245C217 272.776 217 270.308 217 267.764C214.69 267.764 212.38 267.764 210 267.764C210 263.156 210 258.548 210 253.801C207.69 253.801 205.38 253.801 203 253.801C203 247.053 203 240.306 203 233.354C207.62 233.354 212.24 233.354 217 233.354C217 230.886 217 228.417 217 225.874C223.93 225.874 230.86 225.874 238 225.874C238 228.178 238 230.482 238 232.855C235.69 232.855 233.38 232.855 231 232.855C231 235.159 231 237.463 231 239.837C228.69 239.837 226.38 239.837 224 239.837C224 246.914 224 253.99 224 261.281C226.31 261.281 228.62 261.281 231 261.281C231 263.585 231 265.889 231 268.263C235.62 268.263 240.24 268.263 245 268.263C245 270.732 245 273.2 245 275.743C247.31 275.743 249.62 275.743 252 275.743C252 278.047 252 280.351 252 282.725C254.475 282.725 256.95 282.725 259.5 282.725C259.5 285.029 259.5 287.333 259.5 289.707C261.81 289.707 264.12 289.707 266.5 289.707C266.5 292.011 266.5 294.315 266.5 296.689C273.43 296.689 280.36 296.689 287.5 296.689C287.5 294.385 287.5 292.081 287.5 289.707C294.595 289.707 301.69 289.707 309 289.707C309 284.934 309 280.162 309 275.245C304.38 275.245 299.76 275.245 295 275.245C295 272.941 295 270.637 295 268.263C290.215 268.263 285.43 268.263 280.5 268.263C280.5 270.567 280.5 272.871 280.5 275.245C278.19 275.245 275.88 275.245 273.5 275.245C273.5 272.941 273.5 270.637 273.5 268.263C268.88 268.263 264.26 268.263 259.5 268.263C259.5 265.794 259.5 263.326 259.5 260.783C257.19 260.783 254.88 260.783 252.5 260.783C252.5 256.339 252.5 251.896 252.5 247.318C254.81 247.318 257.12 247.318 259.5 247.318C259.5 244.849 259.5 242.381 259.5 239.837C261.81 239.837 264.12 239.837 266.5 239.837C266.5 237.533 266.5 235.229 266.5 232.855C271.12 232.855 275.74 232.855 280.5 232.855C280.5 230.551 280.5 228.247 280.5 225.874C282.975 225.874 285.45 225.874 288 225.874C288 223.57 288 221.266 288 218.892C306.645 218.892 325.29 218.892 344.5 218.892C344.5 216.423 344.5 213.955 344.5 211.411C349.12 211.411 353.74 211.411 358.5 211.411C358.5 216.184 358.5 220.957 358.5 225.874C360.81 225.874 363.12 225.874 365.5 225.874C365.5 228.178 365.5 230.482 365.5 232.855C367.975 232.855 370.45 232.855 373 232.855C373 235.159 373 237.463 373 239.837C375.31 239.837 377.62 239.837 380 239.837C380 242.141 380 244.445 380 246.819C382.31 246.819 384.62 246.819 387 246.819C387 249.123 387 251.427 387 253.801C389.31 253.801 391.62 253.801 394 253.801C394 258.573 394 263.346 394 268.263C391.69 268.263 389.38 268.263 387 268.263C387 270.567 387 272.871 387 275.245C384.69 275.245 382.38 275.245 380 275.245C380 277.549 380 279.853 380 282.227C377.525 282.227 375.05 282.227 372.5 282.227C372.5 284.531 372.5 286.835 372.5 289.208C370.19 289.208 367.88 289.208 365.5 289.208C365.5 293.981 365.5 298.753 365.5 303.671C363.19 303.671 360.88 303.671 358.5 303.671C358.5 305.975 358.5 308.279 358.5 310.652C356.025 310.652 353.55 310.652 351 310.652C351 317.729 351 324.805 351 332.096C358.26 332.096 365.52 332.096 373 332.096C373 329.792 373 327.488 373 325.115C375.31 325.115 377.62 325.115 380 325.115C380 322.646 380 320.177 380 317.634C377.69 317.634 375.38 317.634 373 317.634C373 315.33 373 313.026 373 310.652C377.62 310.652 382.24 310.652 387 310.652C387 306.044 387 301.436 387 296.689C389.31 296.689 391.62 296.689 394 296.689C394 294.385 394 292.081 394 289.707C396.31 289.707 398.62 289.707 401 289.707C401 284.934 401 280.162 401 275.245C403.31 275.245 405.62 275.245 408 275.245C408 272.941 408 270.637 408 268.263C410.31 268.263 412.62 268.263 415 268.263C415 265.959 415 263.655 415 261.281C417.475 261.281 419.95 261.281 422.5 261.281C422.5 256.509 422.5 251.736 422.5 246.819C420.19 246.819 417.88 246.819 415.5 246.819C415.5 244.515 415.5 242.211 415.5 239.837C413.025 239.837 410.55 239.837 408 239.837C408 237.533 408 235.229 408 232.855C405.69 232.855 403.38 232.855 401 232.855C401 225.779 401 218.702 401 211.411C403.31 211.411 405.62 211.411 408 211.411C408 213.88 408 216.349 408 218.892C410.31 218.892 412.62 218.892 415 218.892C415 221.196 415 223.5 415 225.874C417.31 225.874 419.62 225.874 422 225.874C422 228.178 422 230.482 422 232.855C424.475 232.855 426.95 232.855 429.5 232.855C429.5 235.159 429.5 237.463 429.5 239.837C431.81 239.837 434.12 239.837 436.5 239.837C436.5 242.141 436.5 244.445 436.5 246.819C438.81 246.819 441.12 246.819 443.5 246.819C443.5 249.288 443.5 251.756 443.5 254.299C445.81 254.299 448.12 254.299 450.5 254.299C450.5 256.603 450.5 258.907 450.5 261.281C452.81 261.281 455.12 261.281 457.5 261.281C457.5 263.585 457.5 265.889 457.5 268.263C459.975 268.263 462.45 268.263 465 268.263C465 270.567 465 272.871 465 275.245C467.31 275.245 469.62 275.245 472 275.245C472 289.233 472 303.222 472 317.634C469.69 317.634 467.38 317.634 465 317.634C465 319.938 465 322.242 465 324.616C462.525 324.616 460.05 324.616 457.5 324.616C457.5 329.388 457.5 334.161 457.5 339.078C466.905 339.078 476.31 339.078 486 339.078C486 334.306 486 329.533 486 324.616C488.31 324.616 490.62 324.616 493 324.616C493 317.704 493 310.792 493 303.671C490.69 303.671 488.38 303.671 486 303.671C486 284.91 486 266.149 486 246.819C483.69 246.819 481.38 246.819 479 246.819C479 244.515 479 242.211 479 239.837C476.525 239.837 474.05 239.837 471.5 239.837C471.5 237.533 471.5 235.229 471.5 232.855C469.355 232.855 467.21 232.855 465 232.855C465 230.387 465 227.918 465 225.375C462.69 225.375 460.38 225.375 458 225.375C458 216.159 458 206.943 458 197.448C460.145 197.448 462.29 197.448 464.5 197.448C464.5 183.459 464.5 169.471 464.5 155.059C462.19 155.059 459.88 155.059 457.5 155.059C457.5 152.59 457.5 150.121 457.5 147.578C459.975 147.578 462.45 147.578 465 147.578C465 149.882 465 152.186 465 154.56C467.31 154.56 469.62 154.56 472 154.56C472 166.409 472 178.258 472 190.466C474.31 190.466 476.62 190.466 479 190.466C479 195.074 479 199.682 479 204.43C481.31 204.43 483.62 204.43 486 204.43C486 206.734 486 209.038 486 211.411C488.31 211.411 490.62 211.411 493 211.411C493 213.88 493 216.349 493 218.892C497.62 218.892 502.24 218.892 507 218.892C507 221.196 507 223.5 507 225.874C514.095 225.874 521.19 225.874 528.5 225.874C528.5 223.57 528.5 221.266 528.5 218.892C535.595 218.892 542.69 218.892 550 218.892C550 216.588 550 214.284 550 211.91C552.31 211.91 554.62 211.91 557 211.91C557 207.138 557 202.365 557 197.448C559.31 197.448 561.62 197.448 564 197.448C564 192.675 564 187.903 564 182.986C561.525 182.986 559.05 182.986 556.5 182.986C556.5 185.29 556.5 187.594 556.5 189.967C554.19 189.967 551.88 189.967 549.5 189.967C549.5 192.271 549.5 194.575 549.5 196.949C542.57 196.949 535.64 196.949 528.5 196.949C528.5 194.81 528.5 192.67 528.5 190.466C533.285 190.466 538.07 190.466 543 190.466C543 188.162 543 185.858 543 183.484C545.31 183.484 547.62 183.484 550 183.484C550 181.016 550 178.547 550 176.004C547.525 176.004 545.05 176.004 542.5 176.004C542.5 178.308 542.5 180.612 542.5 182.986C535.57 182.986 528.64 182.986 521.5 182.986C521.5 178.378 521.5 173.77 521.5 169.022C519.19 169.022 516.88 169.022 514.5 169.022C514.5 164.25 514.5 159.477 514.5 154.56C512.19 154.56 509.88 154.56 507.5 154.56C507.5 152.256 507.5 149.952 507.5 147.578C505.025 147.578 502.55 147.578 500 147.578C500 145.274 500 142.97 500 140.596C497.69 140.596 495.38 140.596 493 140.596C493 138.128 493 135.659 493 133.116C488.38 133.116 483.76 133.116 479 133.116C479 130.812 479 128.508 479 126.134C462.665 126.134 446.33 126.134 429.5 126.134C429.5 123.83 429.5 121.526 429.5 119.152C424.88 119.152 420.26 119.152 415.5 119.152C415.5 116.848 415.5 114.544 415.5 112.171C399 112.171 382.5 112.171 365.5 112.171C365.5 114.475 365.5 116.779 365.5 119.152C349.33 119.152 333.16 119.152 316.5 119.152C316.5 117.013 316.5 114.874 316.5 112.669C318.81 112.669 321.12 112.669 323.5 112.669C323.5 110.201 323.5 107.732 323.5 105.189C316.405 105.189 309.31 105.189 302 105.189C302 102.885 302 100.581 302 98.207C306.62 98.207 311.24 98.207 316 98.207C316 95.903 316 93.5991 316 91.2253C313.69 91.2253 311.38 91.2253 309 91.2253C309 88.7567 309 86.2881 309 83.7448C304.38 83.7448 299.76 83.7448 295 83.7448C295 81.6054 295 79.466 295 77.2617C299.62 77.2617 304.24 77.2617 309 77.2617C309 74.7932 309 72.3246 309 69.7812C301.905 69.7812 294.81 69.7812 287.5 69.7812C287.5 67.4773 287.5 65.1733 287.5 62.7995C292.285 62.7995 297.07 62.7995 302 62.7995C302 60.3309 302 57.8624 302 55.319C292.76 55.319 283.52 55.319 274 55.319C274 53.1796 274 51.0402 274 48.8359C278.62 48.8359 283.24 48.8359 288 48.8359C288 46.3674 288 43.8988 288 41.3555C280.905 41.3555 273.81 41.3555 266.5 41.3555C266.5 39.2161 266.5 37.0766 266.5 34.8724C271.12 34.8724 275.74 34.8724 280.5 34.8724C280.5 32.4038 280.5 29.9353 280.5 27.3919C275.88 27.3919 271.26 27.3919 266.5 27.3919C266.5 29.6959 266.5 31.9999 266.5 34.3737C261.88 34.3737 257.26 34.3737 252.5 34.3737C252.5 32.0697 252.5 29.7657 252.5 27.3919C245.405 27.3919 238.31 27.3919 231 27.3919C231 25.0879 231 22.784 231 20.4102C226.215 20.4102 221.43 20.4102 216.5 20.4102C216.5 22.7141 216.5 25.0181 216.5 27.3919C207.26 27.3919 198.02 27.3919 188.5 27.3919C188.5 25.0879 188.5 22.784 188.5 20.4102C186.19 20.4102 183.88 20.4102 181.5 20.4102C181.515 18.6976 181.515 18.6976 181.531 16.9504C181.542 15.7764 181.536 14.6019 181.5 13.4284C181.335 13.2638 181.17 13.0992 181 12.9297Z" fill="#FF5289"/>
<path d="M478.5 140.596C469.26 140.596 460.02 140.596 450.5 140.596C450.5 152.281 450.5 163.965 450.5 176.004C448.19 176.004 445.88 176.004 443.5 176.004C443.5 180.612 443.5 185.22 443.5 189.967C441.19 189.967 438.88 189.967 436.5 189.967C436.5 194.74 436.5 199.512 436.5 204.43C434.19 204.43 431.88 204.43 429.5 204.43C429.5 209.037 429.5 213.645 429.5 218.393C427.19 218.393 424.88 218.393 422.5 218.393C422.5 216.089 422.5 213.785 422.5 211.411C417.88 211.411 413.26 211.411 408.5 211.411C408.5 213.715 408.5 216.019 408.5 218.393C410.81 218.393 413.12 218.393 415.5 218.393C415.5 220.697 415.5 223.001 415.5 225.375C417.81 225.375 420.12 225.375 422.5 225.375C422.5 227.843 422.5 230.312 422.5 232.855C424.81 232.855 427.12 232.855 429.5 232.855C429.5 235.159 429.5 237.463 429.5 239.837C431.81 239.837 434.12 239.837 436.5 239.837C436.5 242.141 436.5 244.445 436.5 246.819C438.81 246.819 441.12 246.819 443.5 246.819C443.5 249.287 443.5 251.756 443.5 254.299C445.81 254.299 448.12 254.299 450.5 254.299C450.5 256.603 450.5 258.907 450.5 261.281C452.81 261.281 455.12 261.281 457.5 261.281C457.5 263.585 457.5 265.889 457.5 268.263C459.975 268.263 462.45 268.263 465 268.263C465 270.567 465 272.871 465 275.245C467.31 275.245 469.62 275.245 472 275.245C472 289.233 472 303.222 472 317.634C469.69 317.634 467.38 317.634 465 317.634C465 319.938 465 322.242 465 324.616C462.525 324.616 460.05 324.616 457.5 324.616C457.5 329.388 457.5 334.161 457.5 339.078C466.905 339.078 476.31 339.078 486 339.078C486 334.305 486 329.533 486 324.616C488.31 324.616 490.62 324.616 493 324.616C493 317.704 493 310.792 493 303.67C490.69 303.67 488.38 303.67 486 303.67C486 284.909 486 266.148 486 246.819C483.69 246.819 481.38 246.819 479 246.819C479 244.515 479 242.211 479 239.837C476.525 239.837 474.05 239.837 471.5 239.837C471.5 237.533 471.5 235.229 471.5 232.855C469.355 232.855 467.21 232.855 465 232.855C465 230.387 465 227.918 465 225.375C462.69 225.375 460.38 225.375 458 225.375C458 216.159 458 206.943 458 197.448C460.145 197.448 462.29 197.448 464.5 197.448C464.5 183.459 464.5 169.471 464.5 155.058C462.19 155.058 459.88 155.058 457.5 155.058C457.5 152.59 457.5 150.121 457.5 147.578C459.975 147.578 462.45 147.578 465 147.578C465 149.882 465 152.186 465 154.56C467.31 154.56 469.62 154.56 472 154.56C472 166.409 472 178.258 472 190.466C474.31 190.466 476.62 190.466 479 190.466C479 195.074 479 199.682 479 204.43C481.31 204.43 483.62 204.43 486 204.43C486 206.734 486 209.037 486 211.411C488.31 211.411 490.62 211.411 493 211.411C493 213.88 493 216.348 493 218.892C497.62 218.892 502.24 218.892 507 218.892C507 221.196 507 223.5 507 225.874C514.095 225.874 521.19 225.874 528.5 225.874C528.5 223.57 528.5 221.266 528.5 218.892C535.595 218.892 542.69 218.892 550 218.892C550 216.588 550 214.284 550 211.91C552.31 211.91 554.62 211.91 557 211.91C557 207.137 557 202.365 557 197.448C559.31 197.448 561.62 197.448 564 197.448C564 192.675 564 187.903 564 182.986C561.525 182.986 559.05 182.986 556.5 182.986C556.5 185.29 556.5 187.593 556.5 189.967C554.19 189.967 551.88 189.967 549.5 189.967C549.5 192.271 549.5 194.575 549.5 196.949C542.57 196.949 535.64 196.949 528.5 196.949C528.5 194.81 528.5 192.67 528.5 190.466C533.285 190.466 538.07 190.466 543 190.466C543 188.162 543 185.858 543 183.484C545.31 183.484 547.62 183.484 550 183.484C550 181.016 550 178.547 550 176.004C547.525 176.004 545.05 176.004 542.5 176.004C542.5 178.308 542.5 180.612 542.5 182.986C535.57 182.986 528.64 182.986 521.5 182.986C521.5 178.378 521.5 173.77 521.5 169.022C519.025 169.022 516.55 169.022 514 169.022C514 173.63 514 178.238 514 182.986C511.69 182.986 509.38 182.986 507 182.986C507 180.682 507 178.378 507 176.004C504.69 176.004 502.38 176.004 500 176.004C500 173.7 500 171.396 500 169.022C497.69 169.022 495.38 169.022 493 169.022C493 164.249 493 159.477 493 154.56C490.69 154.56 488.38 154.56 486 154.56C486 152.42 486 150.281 486 148.077C483.69 148.077 481.38 148.077 479 148.077C479.015 147.058 479.015 147.058 479.031 146.02C479.061 144.086 478.83 142.571 478.5 140.596Z" fill="#FF5289"/>
<path d="M167 41.854C164.69 41.854 162.38 41.854 160 41.854C160 43.9934 160 46.1328 160 48.3371C159.5 48.3313 159.001 48.3255 158.486 48.3195C157.841 48.315 157.196 48.3105 156.531 48.3059C155.887 48.3001 155.243 48.2943 154.58 48.2884C153 48.3371 153 48.3371 152.5 48.8358C152.428 50.9978 152.479 53.1553 152.5 55.3188C150.19 55.3188 147.88 55.3188 145.5 55.3188C145.5 60.0914 145.5 64.8639 145.5 69.7811C143.19 69.7811 140.88 69.7811 138.5 69.7811C138.5 74.3891 138.5 78.997 138.5 83.7446C136.19 83.7446 133.88 83.7446 131.5 83.7446C131.5 86.2132 131.5 88.6817 131.5 91.2251C129.19 91.2251 126.88 91.2251 124.5 91.2251C124.5 98.3016 124.5 105.378 124.5 112.669C126.81 112.669 129.12 112.669 131.5 112.669C131.5 114.973 131.5 117.277 131.5 119.651C138.595 119.651 145.69 119.651 153 119.651C153 117.347 153 115.043 153 112.669C155.31 112.669 157.62 112.669 160 112.669C160 110.201 160 107.732 160 105.189C164.62 105.189 169.24 105.189 174 105.189C174 102.885 174 100.581 174 98.2069C181.095 98.2069 188.19 98.2069 195.5 98.2069C195.5 100.675 195.5 103.144 195.5 105.687C197.81 105.687 200.12 105.687 202.5 105.687C202.5 114.903 202.5 124.119 202.5 133.614C204.81 133.614 207.12 133.614 209.5 133.614C209.5 152.375 209.5 171.136 209.5 190.466C211.81 190.466 214.12 190.466 216.5 190.466C216.5 192.605 216.5 194.745 216.5 196.949C214.19 196.949 211.88 196.949 209.5 196.949C209.5 201.722 209.5 206.494 209.5 211.411C207.19 211.411 204.88 211.411 202.5 211.411C202.5 213.715 202.5 216.019 202.5 218.393C197.715 218.393 192.93 218.393 188 218.393C188 220.697 188 223.001 188 225.375C185.69 225.375 183.38 225.375 181 225.375C181 232.616 181 239.857 181 247.318C183.475 247.318 185.95 247.318 188.5 247.318C188.5 254.229 188.5 261.141 188.5 268.263C190.81 268.263 193.12 268.263 195.5 268.263C195.5 273.035 195.5 277.808 195.5 282.725C197.81 282.725 200.12 282.725 202.5 282.725C202.5 285.029 202.5 287.333 202.5 289.707C204.81 289.707 207.12 289.707 209.5 289.707C209.5 292.011 209.5 294.315 209.5 296.689C211.975 296.689 214.45 296.689 217 296.689C217 298.993 217 301.297 217 303.67C223.93 303.67 230.86 303.67 238 303.67C238 296.594 238 289.517 238 282.226C235.69 282.226 233.38 282.226 231 282.226C231 279.922 231 277.618 231 275.245C226.38 275.245 221.76 275.245 217 275.245C217 272.776 217 270.308 217 267.764C214.69 267.764 212.38 267.764 210 267.764C210 263.156 210 258.548 210 253.801C207.69 253.801 205.38 253.801 203 253.801C203 247.053 203 240.306 203 233.354C207.62 233.354 212.24 233.354 217 233.354C217 230.885 217 228.417 217 225.874C223.93 225.874 230.86 225.874 238 225.874C238 223.405 238 220.936 238 218.393C242.785 218.393 247.57 218.393 252.5 218.393C252.5 213.785 252.5 209.177 252.5 204.43C254.81 204.43 257.12 204.43 259.5 204.43C259.5 202.126 259.5 199.822 259.5 197.448C254.88 197.448 250.26 197.448 245.5 197.448C245.5 195.144 245.5 192.84 245.5 190.466C245.384 188.131 245.191 185.815 245 183.484C242.855 183.32 240.71 183.155 238.5 182.986C238.335 180.682 238.17 178.378 238 176.004C235.69 176.004 233.38 176.004 231 176.004C231 159.547 231 143.09 231 126.134C228.69 126.134 226.38 126.134 224 126.134C224 121.526 224 116.918 224 112.17C221.69 112.17 219.38 112.17 217 112.17C217 114.639 217 117.108 217 119.651C214.69 119.651 212.38 119.651 210 119.651C210 112.739 210 105.827 210 98.7056C210.825 98.7056 211.65 98.7056 212.5 98.7056C212.665 99.0347 212.83 99.3638 213 99.703C213 99.2093 213 98.7155 213 98.2069C213.825 98.3714 214.65 98.536 215.5 98.7056C215.537 99.2822 215.537 99.2822 215.574 99.8705C215.612 100.371 215.649 100.871 215.687 101.386C215.74 102.132 215.74 102.132 215.793 102.894C216 104.191 216 104.191 217 105.189C217 100.581 217 95.9727 217 91.2251C214.525 91.2251 212.05 91.2251 209.5 91.2251C209.5 86.6171 209.5 82.0092 209.5 77.2616C207.19 77.2616 204.88 77.2616 202.5 77.2616C202.5 72.489 202.5 67.7165 202.5 62.7993C200.19 62.7993 197.88 62.7993 195.5 62.7993C195.5 69.8758 195.5 76.9524 195.5 84.2433C193.19 84.2433 190.88 84.2433 188.5 84.2433C188.5 86.5473 188.5 88.8513 188.5 91.2251C183.715 91.2251 178.93 91.2251 174 91.2251C174 88.9211 174 86.6171 174 84.2433C171.69 84.2433 169.38 84.2433 167 84.2433C166.835 84.5725 166.67 84.9016 166.5 85.2407C166.229 85.0826 165.959 84.9244 165.68 84.7615C164.292 84.152 163.134 84.0391 161.625 83.9316C161.133 83.8944 160.64 83.8571 160.133 83.8187C159.759 83.7942 159.385 83.7698 159 83.7446C159.165 83.4155 159.33 83.0863 159.5 82.7472C159.569 80.9169 159.521 79.0937 159.5 77.2616C156.53 77.0147 156.53 77.0147 153.5 76.7629C153.335 69.8509 153.17 62.939 153 55.8175C155.31 55.8175 157.62 55.8175 160 55.8175C160 53.5136 160 51.2096 160 48.8358C162.31 48.8358 164.62 48.8358 167 48.8358C167 46.5318 167 44.2278 167 41.854Z" fill="#FF5289"/>
<path d="M181 12.9297C178.69 12.9297 176.38 12.9297 174 12.9297C174 17.7022 174 22.4748 174 27.3919C171.69 27.3919 169.38 27.3919 167 27.3919C167 25.0879 167 22.784 167 20.4102C164.69 20.4102 162.38 20.4102 160 20.4102C160 25.0181 160 29.6261 160 34.3737C162.31 34.3737 164.62 34.3737 167 34.3737C167 36.6777 167 38.9817 167 41.3555C171.62 41.52 176.24 41.6846 181 41.8542C181 46.4621 181 51.0701 181 55.8177C176.38 55.8177 171.76 55.8177 167 55.8177C167 59.4383 167 63.0588 167 66.7891C169.475 66.7891 171.95 66.7891 174.5 66.7891C174.5 65.6371 174.5 64.4851 174.5 63.2982C176.81 63.2982 179.12 63.2982 181.5 63.2982C181.5 60.8296 181.5 58.3611 181.5 55.8177C183.81 55.8177 186.12 55.8177 188.5 55.8177C188.5 53.5137 188.5 51.2097 188.5 48.8359C190.81 48.8359 193.12 48.8359 195.5 48.8359C195.5 46.532 195.5 44.228 195.5 41.8542C197.975 41.8542 200.45 41.8542 203 41.8542C203 44.1582 203 46.4621 203 48.8359C207.62 48.8359 212.24 48.8359 217 48.8359C217 51.1399 217 53.4439 217 55.8177C219.31 55.8177 221.62 55.8177 224 55.8177C224 58.1217 224 60.4257 224 62.7995C226.31 62.7995 228.62 62.7995 231 62.7995C231 65.1035 231 67.4074 231 69.7812C235.62 69.7812 240.24 69.7812 245 69.7812C245 74.5538 245 79.3263 245 84.2435C247.31 84.2435 249.62 84.2435 252 84.2435C252 86.5475 252 88.8515 252 91.2253C256.785 91.2253 261.57 91.2253 266.5 91.2253C266.5 93.5292 266.5 95.8332 266.5 98.207C271.12 98.207 275.74 98.207 280.5 98.207C280.5 102.815 280.5 107.423 280.5 112.171C282.81 112.171 285.12 112.171 287.5 112.171C287.5 114.639 287.5 117.108 287.5 119.651C292.12 119.651 296.74 119.651 301.5 119.651C301.5 121.955 301.5 124.259 301.5 126.633C322.62 126.633 343.74 126.633 365.5 126.633C365.5 124.329 365.5 122.025 365.5 119.651C349.165 119.651 332.83 119.651 316 119.651C316 117.182 316 114.714 316 112.171C311.38 112.171 306.76 112.171 302 112.171C302 107.563 302 102.955 302 98.207C306.62 98.207 311.24 98.207 316 98.207C316 95.903 316 93.5991 316 91.2253C313.69 91.2253 311.38 91.2253 309 91.2253C309 88.7567 309 86.2881 309 83.7448C304.38 83.7448 299.76 83.7448 295 83.7448C295 81.6054 295 79.466 295 77.2617C299.62 77.2617 304.24 77.2617 309 77.2617C309 74.7932 309 72.3246 309 69.7812C301.905 69.7812 294.81 69.7812 287.5 69.7812C287.5 67.4773 287.5 65.1733 287.5 62.7995C292.285 62.7995 297.07 62.7995 302 62.7995C302 60.3309 302 57.8624 302 55.319C292.76 55.319 283.52 55.319 274 55.319C274 53.1796 274 51.0402 274 48.8359C278.62 48.8359 283.24 48.8359 288 48.8359C288 46.3674 288 43.8988 288 41.3555C280.905 41.3555 273.81 41.3555 266.5 41.3555C266.5 39.2161 266.5 37.0766 266.5 34.8724C271.12 34.8724 275.74 34.8724 280.5 34.8724C280.5 32.4038 280.5 29.9353 280.5 27.3919C275.88 27.3919 271.26 27.3919 266.5 27.3919C266.5 29.6959 266.5 31.9999 266.5 34.3737C261.88 34.3737 257.26 34.3737 252.5 34.3737C252.5 32.0697 252.5 29.7657 252.5 27.3919C245.405 27.3919 238.31 27.3919 231 27.3919C231 25.0879 231 22.784 231 20.4102C226.215 20.4102 221.43 20.4102 216.5 20.4102C216.5 22.7141 216.5 25.0181 216.5 27.3919C207.26 27.3919 198.02 27.3919 188.5 27.3919C188.5 25.0879 188.5 22.784 188.5 20.4102C186.19 20.4102 183.88 20.4102 181.5 20.4102C181.515 18.6976 181.515 18.6976 181.531 16.9504C181.542 15.7764 181.536 14.6019 181.5 13.4284C181.335 13.2638 181.17 13.0992 181 12.9297Z" fill="#FF5289"/>
<path d="M181 12.9297C178.69 12.9297 176.38 12.9297 174 12.9297C174 17.7022 174 22.4748 174 27.3919C171.69 27.3919 169.38 27.3919 167 27.3919C167 25.0879 167 22.784 167 20.4102C164.69 20.4102 162.38 20.4102 160 20.4102C160 25.0181 160 29.6261 160 34.3737C162.31 34.3737 164.62 34.3737 167 34.3737C167 36.6777 167 38.9817 167 41.3555C171.62 41.52 176.24 41.6846 181 41.8542C181 46.4621 181 51.0701 181 55.8177C176.38 55.8177 171.76 55.8177 167 55.8177C167 59.4383 167 63.0588 167 66.7891C169.475 66.7891 171.95 66.7891 174.5 66.7891C174.5 65.6371 174.5 64.4851 174.5 63.2982C176.81 63.2982 179.12 63.2982 181.5 63.2982C181.5 60.8296 181.5 58.3611 181.5 55.8177C183.81 55.8177 186.12 55.8177 188.5 55.8177C188.5 53.5137 188.5 51.2097 188.5 48.8359C190.81 48.8359 193.12 48.8359 195.5 48.8359C195.5 46.532 195.5 44.228 195.5 41.8542C197.975 41.8542 200.45 41.8542 203 41.8542C203 44.1582 203 46.4621 203 48.8359C207.62 48.8359 212.24 48.8359 217 48.8359C217 51.1399 217 53.4439 217 55.8177C219.31 55.8177 221.62 55.8177 224 55.8177C224 58.1217 224 60.4257 224 62.7995C226.31 62.7995 228.62 62.7995 231 62.7995C231 65.1035 231 67.4074 231 69.7813C235.62 69.7813 240.24 69.7813 245 69.7813C245 74.5538 245 79.3263 245 84.2435C247.31 84.2435 249.62 84.2435 252 84.2435C252 86.5475 252 88.8515 252 91.2253C256.785 91.2253 261.57 91.2253 266.5 91.2253C266.5 93.5292 266.5 95.8332 266.5 98.207C271.12 98.207 275.74 98.207 280.5 98.207C280.5 100.511 280.5 102.815 280.5 105.189C285.285 105.189 290.07 105.189 295 105.189C295 107.493 295 109.797 295 112.171C297.145 112.171 299.29 112.171 301.5 112.171C301.5 107.563 301.5 102.955 301.5 98.207C296.88 98.207 292.26 98.207 287.5 98.207C287.5 93.5991 287.5 88.9911 287.5 84.2435C289.81 84.2435 292.12 84.2435 294.5 84.2435C294.5 81.7749 294.5 79.3064 294.5 76.763C292.26 76.7496 290.021 76.7397 287.781 76.7319C287.142 76.7277 286.502 76.7235 285.843 76.7192C285.235 76.7176 284.628 76.716 284.002 76.7143C283.439 76.7117 282.876 76.7091 282.296 76.7064C281 76.763 281 76.763 280.5 77.2617C280.464 78.4352 280.458 79.6098 280.469 80.7838C280.473 81.4273 280.478 82.0708 280.482 82.7338C280.488 83.232 280.494 83.7302 280.5 84.2435C280.076 84.2075 279.652 84.1715 279.215 84.1344C274.951 83.7979 270.779 83.7012 266.5 83.7448C266.5 81.4408 266.5 79.1368 266.5 76.763C264.19 76.763 261.88 76.763 259.5 76.763C259.5 74.459 259.5 72.1551 259.5 69.7813C257.025 69.7813 254.55 69.7813 252 69.7813C252 65.1733 252 60.5653 252 55.8177C247.38 55.8177 242.76 55.8177 238 55.8177C238 53.5137 238 51.2097 238 48.8359C233.38 48.8359 228.76 48.8359 224 48.8359C224 46.3674 224 43.8988 224 41.3555C219.38 41.3555 214.76 41.3555 210 41.3555C210 39.0515 210 36.7475 210 34.3737C205.215 34.3737 200.43 34.3737 195.5 34.3737C195.5 32.0697 195.5 29.7657 195.5 27.3919C193.19 27.3919 190.88 27.3919 188.5 27.3919C188.5 25.0879 188.5 22.784 188.5 20.4102C186.19 20.4102 183.88 20.4102 181.5 20.4102C181.515 18.6976 181.515 18.6976 181.531 16.9504C181.542 15.7764 181.536 14.6019 181.5 13.4284C181.335 13.2638 181.17 13.0992 181 12.9297Z" fill="#FF5289"/>
<path d="M167 41.854C164.69 41.854 162.38 41.854 160 41.854C160 43.9934 160 46.1328 160 48.3371C159.5 48.3313 159.001 48.3255 158.486 48.3195C157.841 48.315 157.196 48.3105 156.531 48.3059C155.887 48.3001 155.243 48.2943 154.58 48.2884C153 48.3371 153 48.3371 152.5 48.8358C152.428 50.9978 152.479 53.1553 152.5 55.3188C150.19 55.3188 147.88 55.3188 145.5 55.3188C145.5 60.0914 145.5 64.8639 145.5 69.7811C143.19 69.7811 140.88 69.7811 138.5 69.7811C138.5 74.3891 138.5 78.997 138.5 83.7446C136.19 83.7446 133.88 83.7446 131.5 83.7446C131.5 86.2132 131.5 88.6817 131.5 91.2251C129.19 91.2251 126.88 91.2251 124.5 91.2251C124.5 98.3016 124.5 105.378 124.5 112.669C126.81 112.669 129.12 112.669 131.5 112.669C131.5 114.973 131.5 117.277 131.5 119.651C138.595 119.651 145.69 119.651 153 119.651C153 117.347 153 115.043 153 112.669C155.31 112.669 157.62 112.669 160 112.669C160 110.201 160 107.732 160 105.189C164.62 105.189 169.24 105.189 174 105.189C174 98.2767 174 91.3647 174 84.2433C171.69 84.2433 169.38 84.2433 167 84.2433C166.835 84.5725 166.67 84.9016 166.5 85.2407C166.229 85.0826 165.959 84.9244 165.68 84.7615C164.292 84.152 163.134 84.0391 161.625 83.9316C160.886 83.8757 160.886 83.8757 160.133 83.8187C159.572 83.782 159.572 83.782 159 83.7446C159.248 83.2509 159.248 83.2509 159.5 82.7472C159.569 80.9169 159.521 79.0937 159.5 77.2616C156.53 77.0147 156.53 77.0147 153.5 76.7629C153.335 69.8509 153.17 62.939 153 55.8175C155.31 55.8175 157.62 55.8175 160 55.8175C160 53.5136 160 51.2096 160 48.8358C162.31 48.8358 164.62 48.8358 167 48.8358C167 46.5318 167 44.2278 167 41.854Z" fill="#FF5289"/>
<path d="M479 126.134C462.665 126.134 446.33 126.134 429.5 126.134C429.5 126.299 429.5 126.463 429.5 126.633C445.67 126.633 461.84 126.633 478.5 126.633C478.5 128.772 478.5 130.912 478.5 133.116C477.694 133.11 476.887 133.104 476.057 133.099C467.522 133.058 459.027 133.27 450.5 133.615C450.5 135.919 450.5 138.223 450.5 140.597C459.74 140.597 468.98 140.597 478.5 140.597C478.665 143.065 478.83 145.534 479 148.077C481.31 148.077 483.62 148.077 486 148.077C486 150.216 486 152.356 486 154.56C488.31 154.56 490.62 154.56 493 154.56C493 159.333 493 164.105 493 169.022C495.31 169.022 497.62 169.022 500 169.022C500 171.326 500 173.63 500 176.004C502.31 176.004 504.62 176.004 507 176.004C507 178.308 507 180.612 507 182.986C509.31 182.986 511.62 182.986 514 182.986C514.408 173.499 514.562 164.055 514.5 154.56C512.19 154.56 509.88 154.56 507.5 154.56C507.5 152.256 507.5 149.952 507.5 147.578C505.025 147.578 502.55 147.578 500 147.578C500 145.274 500 142.97 500 140.597C497.69 140.597 495.38 140.597 493 140.597C493 138.128 493 135.659 493 133.116C488.38 133.116 483.76 133.116 479 133.116C479 130.812 479 128.508 479 126.134Z" fill="#FF5289"/>
<path d="M302 84.2437C297.215 84.2437 292.43 84.2437 287.5 84.2437C287.5 88.8516 287.5 93.4596 287.5 98.2072C292.12 98.2072 296.74 98.2072 301.5 98.2072C301.5 102.815 301.5 107.423 301.5 112.171C299.355 112.171 297.21 112.171 295 112.171C295 109.867 295 107.563 295 105.189C290.215 105.189 285.43 105.189 280.5 105.189C280.5 107.493 280.5 109.797 280.5 112.171C282.81 112.171 285.12 112.171 287.5 112.171C287.5 114.639 287.5 117.108 287.5 119.651C292.12 119.651 296.74 119.651 301.5 119.651C301.5 121.955 301.5 124.259 301.5 126.633C322.62 126.633 343.74 126.633 365.5 126.633C365.5 124.329 365.5 122.025 365.5 119.651C349.165 119.651 332.83 119.651 316 119.651C316 117.183 316 114.714 316 112.171C311.38 112.171 306.76 112.171 302 112.171C302 107.563 302 102.955 302 98.2072C306.62 98.2072 311.24 98.2072 316 98.2072C316 95.9032 316 93.5992 316 91.2254C311.38 91.2254 306.76 91.2254 302 91.2254C302 88.9214 302 86.6175 302 84.2437Z" fill="#FF5289"/>
<path d="M273.5 105.189C268.88 105.189 264.26 105.189 259.5 105.189C259.5 109.962 259.5 114.734 259.5 119.651C257.19 119.651 254.88 119.651 252.5 119.651C252.5 121.955 252.5 124.259 252.5 126.633C250.025 126.633 247.55 126.633 245 126.633C245 133.545 245 140.457 245 147.578C242.69 147.578 240.38 147.578 238 147.578C238 156.959 238 166.339 238 176.004C240.31 176.004 242.62 176.004 245 176.004C245 171.396 245 166.788 245 162.041C247.475 162.041 249.95 162.041 252.5 162.041C252.5 157.268 252.5 152.495 252.5 147.578C254.81 147.578 257.12 147.578 259.5 147.578C259.5 142.97 259.5 138.362 259.5 133.615C261.81 133.615 264.12 133.615 266.5 133.615C266.5 128.842 266.5 124.07 266.5 119.153C268.81 119.153 271.12 119.153 273.5 119.153C273.5 114.545 273.5 109.937 273.5 105.189Z" fill="#FF5289"/>
<path d="M231 133.615C228.69 133.615 226.38 133.615 224 133.615C224 138.223 224 142.831 224 147.578C221.69 147.578 219.38 147.578 217 147.578C217 142.97 217 138.362 217 133.615C214.69 133.615 212.38 133.615 210 133.615C210 152.211 210 170.808 210 189.968C212.31 189.968 214.62 189.968 217 189.968C217 185.36 217 180.752 217 176.004C219.31 176.004 221.62 176.004 224 176.004C224 178.308 224 180.612 224 182.986C226.31 182.986 228.62 182.986 231 182.986C231 166.693 231 150.401 231 133.615Z" fill="#FF5289"/>
<path d="M202.5 62.7993C200.19 62.7993 197.88 62.7993 195.5 62.7993C195.5 69.8758 195.5 76.9524 195.5 84.2433C193.19 84.2433 190.88 84.2433 188.5 84.2433C188.5 86.5473 188.5 88.8513 188.5 91.2251C183.715 91.2251 178.93 91.2251 174 91.2251C174 93.5291 174 95.8331 174 98.2069C181.095 98.2069 188.19 98.2069 195.5 98.2069C195.5 100.511 195.5 102.815 195.5 105.189C197.975 105.189 200.45 105.189 203 105.189C203 114.405 203 123.621 203 133.116C205.145 133.116 207.29 133.116 209.5 133.116C209.5 121.596 209.5 110.076 209.5 98.2069C212.47 98.4537 212.47 98.4537 215.5 98.7056C215.562 99.5901 215.624 100.475 215.688 101.386C215.875 104.067 215.875 104.067 217 105.189C217 100.581 217 95.9727 217 91.2251C214.525 91.2251 212.05 91.2251 209.5 91.2251C209.5 86.6171 209.5 82.0092 209.5 77.2616C207.19 77.2616 204.88 77.2616 202.5 77.2616C202.5 72.489 202.5 67.7165 202.5 62.7993Z" fill="#FF5289"/>
<path d="M231 20.4102C226.215 20.4102 221.43 20.4102 216.5 20.4102C216.5 22.7141 216.5 25.0181 216.5 27.3919C209.57 27.3919 202.64 27.3919 195.5 27.3919C195.5 29.6959 195.5 31.9999 195.5 34.3737C202.43 34.3737 209.36 34.3737 216.5 34.3737C216.665 35.1965 216.83 36.0194 217 36.8672C218.093 36.908 219.187 36.9368 220.281 36.9607C220.89 36.9781 221.499 36.9954 222.127 37.0133C223.882 36.8764 224.942 36.4817 226.508 35.7387C228.568 34.9754 230.793 34.9405 232.969 34.7789C233.696 34.7177 233.696 34.7177 234.438 34.6552C235.625 34.5561 236.813 34.4641 238 34.3737C238 36.8423 238 39.3108 238 41.8542C242.785 41.8542 247.57 41.8542 252.5 41.8542C252.5 39.5502 252.5 37.2462 252.5 34.8724C256.955 34.8724 261.41 34.8724 266 34.8724C266 37.1764 266 39.4804 266 41.8542C263.855 41.8542 261.71 41.8542 259.5 41.8542C259.5 43.9936 259.5 46.133 259.5 48.3372C261.81 48.3372 264.12 48.3372 266.5 48.3372C266.5 46.1978 266.5 44.0584 266.5 41.8542C273.43 41.8542 280.36 41.8542 287.5 41.8542C287.5 43.9936 287.5 46.133 287.5 48.3372C282.88 48.3372 278.26 48.3372 273.5 48.3372C273.5 50.8058 273.5 53.2743 273.5 55.8177C282.905 55.8177 292.31 55.8177 302 55.8177C302 55.6531 302 55.4886 302 55.319C292.76 55.319 283.52 55.319 274 55.319C274 53.1796 274 51.0402 274 48.8359C278.62 48.8359 283.24 48.8359 288 48.8359C288 46.3674 288 43.8988 288 41.3555C280.905 41.3555 273.81 41.3555 266.5 41.3555C266.5 39.2161 266.5 37.0766 266.5 34.8724C271.12 34.8724 275.74 34.8724 280.5 34.8724C280.5 32.4038 280.5 29.9353 280.5 27.3919C275.88 27.3919 271.26 27.3919 266.5 27.3919C266.5 29.6959 266.5 31.9999 266.5 34.3737C261.88 34.3737 257.26 34.3737 252.5 34.3737C252.5 32.0697 252.5 29.7657 252.5 27.3919C245.405 27.3919 238.31 27.3919 231 27.3919C231 25.0879 231 22.784 231 20.4102Z" fill="#FF5289"/>
<path d="M280.5 140.596C278.19 140.596 275.88 140.596 273.5 140.596C273.5 142.9 273.5 145.204 273.5 147.578C271.19 147.578 268.88 147.578 266.5 147.578C266.5 149.882 266.5 152.186 266.5 154.56C264.19 154.56 261.88 154.56 259.5 154.56C259.5 159.332 259.5 164.105 259.5 169.022C257.19 169.022 254.88 169.022 252.5 169.022C252.506 169.988 252.512 170.954 252.518 171.95C252.522 173.208 252.527 174.465 252.531 175.723C252.538 176.68 252.538 176.68 252.544 177.657C252.546 178.263 252.547 178.868 252.549 179.493C252.551 180.054 252.554 180.616 252.557 181.194C252.648 182.452 252.648 182.452 252 182.986C251.964 184.159 251.958 185.334 251.969 186.508C251.973 187.151 251.978 187.795 251.982 188.458C251.988 188.956 251.994 189.454 252 189.967C249.855 189.967 247.71 189.967 245.5 189.967C245.5 187.663 245.5 185.359 245.5 182.986C243.19 182.986 240.88 182.986 238.5 182.986C238.5 183.15 238.5 183.315 238.5 183.484C240.645 183.484 242.79 183.484 245 183.484C244.99 184.492 244.979 185.5 244.969 186.539C244.965 190.201 245.201 193.795 245.5 197.448C250.12 197.448 254.74 197.448 259.5 197.448C259.5 192.84 259.5 188.232 259.5 183.484C261.81 183.484 264.12 183.484 266.5 183.484C266.5 178.712 266.5 173.939 266.5 169.022C268.81 169.022 271.12 169.022 273.5 169.022C273.5 164.414 273.5 159.806 273.5 155.058C275.81 155.058 278.12 155.058 280.5 155.058C280.5 150.286 280.5 145.513 280.5 140.596Z" fill="#FF5289"/>
<path d="M172.012 41.3066C171.49 41.3077 171.49 41.3077 170.957 41.3087C169.867 41.3115 168.777 41.3177 167.687 41.3241C166.939 41.3266 166.191 41.3289 165.443 41.3309C163.629 41.3364 161.814 41.345 160 41.3553C160 41.5199 160 41.6844 160 41.854C162.31 41.854 164.62 41.854 167 41.854C167 44.158 167 46.462 167 48.8358C164.69 48.8358 162.38 48.8358 160 48.8358C160 51.1398 160 53.4437 160 55.8175C157.69 55.8175 155.38 55.8175 153 55.8175C152.988 58.7913 152.979 61.7651 152.973 64.7389C152.97 65.7514 152.967 66.7639 152.962 67.7764C152.956 69.2284 152.953 70.6804 152.951 72.1324C152.949 72.5879 152.946 73.0435 152.943 73.5129C152.943 74.5964 152.969 75.6798 153 76.7629C153.5 77.2615 153.5 77.2615 154.861 77.3103C155.412 77.3045 155.963 77.2987 156.531 77.2927C157.084 77.2882 157.636 77.2837 158.205 77.2791C158.632 77.2733 159.06 77.2675 159.5 77.2615C159.5 78.0844 159.5 78.9073 159.5 79.755C160.985 79.5082 160.985 79.5082 162.5 79.2563C162.5 78.4335 162.5 77.6106 162.5 76.7629C163.985 76.7629 165.47 76.7629 167 76.7629C167 76.2691 167 75.7754 167 75.2668C167.422 75.0758 167.422 75.0758 167.852 74.881C169.147 74.1911 170.226 73.372 171.375 72.4616C171.775 72.1466 172.174 71.8316 172.586 71.507C172.888 71.2666 173.189 71.0262 173.5 70.7785C173.17 70.4493 172.84 70.1202 172.5 69.7811C170.685 69.7811 168.87 69.7811 167 69.7811C167 65.1731 167 60.5651 167 55.8175C171.62 55.8175 176.24 55.8175 181 55.8175C181 51.2096 181 46.6016 181 41.854C177.898 41.5446 175.086 41.2941 172.012 41.3066Z" fill="#FF5289"/>
<path d="M167 41.854C164.69 41.854 162.38 41.854 160 41.854C160 43.9934 160 46.1328 160 48.3371C159.5 48.3313 159.001 48.3255 158.486 48.3195C157.841 48.315 157.196 48.3105 156.531 48.3059C155.887 48.3001 155.243 48.2943 154.58 48.2884C153 48.3371 153 48.3371 152.5 48.8358C152.428 50.9978 152.479 53.1553 152.5 55.3188C150.19 55.3188 147.88 55.3188 145.5 55.3188C145.5 60.0914 145.5 64.8639 145.5 69.7811C143.19 69.7811 140.88 69.7811 138.5 69.7811C138.5 74.3891 138.5 78.997 138.5 83.7446C136.19 83.7446 133.88 83.7446 131.5 83.7446C131.5 86.2132 131.5 88.6817 131.5 91.2251C129.19 91.2251 126.88 91.2251 124.5 91.2251C124.5 98.3016 124.5 105.378 124.5 112.669C126.81 112.669 129.12 112.669 131.5 112.669C131.5 112.505 131.5 112.34 131.5 112.17C129.355 112.17 127.21 112.17 125 112.17C125 109.866 125 107.562 125 105.189C127.145 105.189 129.29 105.189 131.5 105.189C131.5 102.72 131.5 100.252 131.5 97.7082C133.81 97.7082 136.12 97.7082 138.5 97.7082C138.5 95.5688 138.5 93.4293 138.5 91.2251C136.355 91.2251 134.21 91.2251 132 91.2251C132 88.9211 132 86.6171 132 84.2433C136.62 84.2433 141.24 84.2433 146 84.2433C146 86.3827 146 88.5222 146 90.7264C146.99 90.7264 147.98 90.7264 149 90.7264C149 90.5618 149 90.3973 149 90.2277C148.175 90.2277 147.35 90.2277 146.5 90.2277C146.665 88.582 146.83 86.9363 147 85.2407C147.825 85.2407 148.65 85.2407 149.5 85.2407C149.5 84.747 149.5 84.2533 149.5 83.7446C148.015 83.4978 148.015 83.4978 146.5 83.2459C146.335 81.1065 146.17 78.9671 146 76.7629C148.31 76.7629 150.62 76.7629 153 76.7629C153 69.8509 153 62.939 153 55.8175C155.31 55.8175 157.62 55.8175 160 55.8175C160 53.5136 160 51.2096 160 48.8358C162.31 48.8358 164.62 48.8358 167 48.8358C167 46.5318 167 44.2278 167 41.854Z" fill="#FF5289"/>
<path d="M174 98.207C169.215 98.207 164.43 98.207 159.5 98.207C159 99.7031 159 99.7031 159.5 105.189C155.045 105.189 150.59 105.189 146 105.189C146 107.493 146 109.797 146 112.171C141.38 112.171 136.76 112.171 132 112.171C132 110.031 132 107.892 132 105.687C135.63 105.687 139.26 105.687 143 105.687C143 103.219 143 100.75 143 98.207C139.205 98.207 135.41 98.207 131.5 98.207C131.5 100.511 131.5 102.815 131.5 105.189C129.355 105.189 127.21 105.189 125 105.189C125 107.493 125 109.797 125 112.171C127.145 112.171 129.29 112.171 131.5 112.171C131.5 114.639 131.5 117.108 131.5 119.651C138.595 119.651 145.69 119.651 153 119.651C153 117.347 153 115.043 153 112.669C155.31 112.669 157.62 112.669 160 112.669C160 110.201 160 107.732 160 105.189C164.62 105.189 169.24 105.189 174 105.189C174 102.885 174 100.581 174 98.207Z" fill="#FF5289"/>
<path d="M287.5 62.7993C282.88 62.7993 278.26 62.7993 273.5 62.7993C273.5 65.1033 273.5 67.4073 273.5 69.7811C275.81 69.7811 278.12 69.7811 280.5 69.7811C280.5 72.0851 280.5 74.3891 280.5 76.7629C275.88 76.7629 271.26 76.7629 266.5 76.7629C266.5 79.0668 266.5 81.3708 266.5 83.7446C271.205 84.1277 275.779 84.2914 280.5 84.2433C280.665 81.9393 280.83 79.6354 281 77.2616C285.455 77.097 289.91 76.9324 294.5 76.7629C294.5 79.2314 294.5 81.7 294.5 84.2433C296.975 84.2433 299.45 84.2433 302 84.2433C302 86.5473 302 88.8513 302 91.2251C304.31 91.2251 306.62 91.2251 309 91.2251C309 88.7565 309 86.288 309 83.7446C304.38 83.7446 299.76 83.7446 295 83.7446C295 81.6052 295 79.4658 295 77.2616C299.62 77.2616 304.24 77.2616 309 77.2616C309 74.793 309 72.3244 309 69.7811C301.905 69.7811 294.81 69.7811 287.5 69.7811C287.5 67.4771 287.5 65.1731 287.5 62.7993Z" fill="#FF5289"/>
<path d="M181 12.9297C178.69 12.9297 176.38 12.9297 174 12.9297C174 17.7022 174 22.4748 174 27.3919C171.69 27.3919 169.38 27.3919 167 27.3919C167 25.0879 167 22.784 167 20.4102C164.69 20.4102 162.38 20.4102 160 20.4102C160 25.0181 160 29.6261 160 34.3737C162.31 34.3737 164.62 34.3737 167 34.3737C167 36.6777 167 38.9817 167 41.3555C171.62 41.3555 176.24 41.3555 181 41.3555C181 39.2161 181 37.0766 181 34.8724C182.32 34.8724 183.64 34.8724 185 34.8724C185 32.4038 185 29.9353 185 27.3919C183.68 27.3919 182.36 27.3919 181 27.3919C181 22.6194 181 17.8468 181 12.9297Z" fill="#FF5289"/>
<path d="M231 133.615C228.69 133.615 226.38 133.615 224 133.615C224 138.223 224 142.831 224 147.578C221.69 147.578 219.38 147.578 217 147.578C217 142.97 217 138.362 217 133.615C214.69 133.615 212.38 133.615 210 133.615C210 152.211 210 170.808 210 189.968C212.145 189.968 214.29 189.968 216.5 189.968C216.5 189.638 216.5 189.309 216.5 188.97C214.685 188.97 212.87 188.97 211 188.97C210.835 177.779 210.67 166.589 210.5 155.059C212.645 155.059 214.79 155.059 217 155.059C217 157.363 217 159.667 217 162.041C219.006 162.441 219.994 162.577 221.906 162.321C222.943 162.182 222.943 162.182 224 162.041C224 159.737 224 157.433 224 155.059C226.31 155.059 228.62 155.059 231 155.059C231 147.982 231 140.906 231 133.615Z" fill="#FF5289"/>
<path d="M213 98.207C211.845 98.207 210.69 98.207 209.5 98.207C209.488 102.75 209.48 107.293 209.474 111.836C209.471 113.945 209.468 116.054 209.462 118.164C209.457 120.197 209.454 122.231 209.453 124.265C209.452 125.043 209.45 125.821 209.447 126.598C209.444 127.684 209.443 128.769 209.443 129.855C209.442 130.474 209.441 131.093 209.44 131.731C209.5 133.116 209.5 133.116 210 133.615C212.31 133.615 214.62 133.615 217 133.615C217 138.223 217 142.831 217 147.578C219.31 147.578 221.62 147.578 224 147.578C224 142.97 224 138.362 224 133.615C226.31 133.615 228.62 133.615 231 133.615C231 131.146 231 128.677 231 126.134C228.69 126.134 226.38 126.134 224 126.134C224 121.526 224 116.918 224 112.171C221.69 112.171 219.38 112.171 217 112.171C217 114.639 217 117.108 217 119.651C214.69 119.651 212.38 119.651 210 119.651C210 112.739 210 105.827 210 98.7057C210.825 98.7057 211.65 98.7057 212.5 98.7057C212.665 99.0349 212.83 99.364 213 99.7031C213 99.2094 213 98.7157 213 98.207Z" fill="#FF5289"/>
<path d="M252 55.8179C247.38 55.8179 242.76 55.8179 238 55.8179C238 60.4258 238 65.0338 238 69.7814C240.31 69.7814 242.62 69.7814 245 69.7814C245 72.0854 245 74.3894 245 76.7632C247.31 76.7632 249.62 76.7632 252 76.7632C252 79.0672 252 81.3712 252 83.745C256.785 83.745 261.57 83.745 266.5 83.745C266.5 81.441 266.5 79.137 266.5 76.7632C264.19 76.7632 261.88 76.7632 259.5 76.7632C259.5 74.4592 259.5 72.1552 259.5 69.7814C257.025 69.7814 254.55 69.7814 252 69.7814C252 65.1734 252 60.5655 252 55.8179Z" fill="#FF5289"/>
<path d="M401 119.651C394.07 119.651 387.14 119.651 380 119.651C380 121.79 380 123.93 380 126.134C382.31 126.134 384.62 126.134 387 126.134C387 128.603 387 131.071 387 133.614C389.31 133.614 391.62 133.614 394 133.614C394 138.222 394 142.83 394 147.578C396.31 147.578 398.62 147.578 401 147.578C401 142.805 401 138.033 401 133.116C403.31 133.116 405.62 133.116 408 133.116C408 130.812 408 128.508 408 126.134C405.69 126.134 403.38 126.134 401 126.134C401 123.995 401 121.855 401 119.651Z" fill="#FF5289"/>
<path d="M478.5 126.633C462.33 126.633 446.16 126.633 429.5 126.633C429.5 128.937 429.5 131.241 429.5 133.615C434.12 133.615 438.74 133.615 443.5 133.615C443.5 135.919 443.5 138.223 443.5 140.596C445.81 140.596 448.12 140.596 450.5 140.596C450.5 138.292 450.5 135.988 450.5 133.615C451.835 133.623 451.835 133.623 453.197 133.632C461.647 133.669 470.057 133.493 478.5 133.116C478.5 130.976 478.5 128.837 478.5 126.633Z" fill="#FF5289"/>
<path d="M422 140.596C417.38 140.596 412.76 140.596 408 140.596C408 142.9 408 145.204 408 147.578C410.31 147.578 412.62 147.578 415 147.578C415 150.047 415 152.515 415 155.058C416.76 155.072 418.521 155.082 420.281 155.09C420.777 155.094 421.272 155.098 421.782 155.102C422.267 155.104 422.752 155.105 423.252 155.107C423.694 155.11 424.137 155.112 424.593 155.115C426.238 155.049 427.87 154.792 429.5 154.56C429.5 157.028 429.5 159.497 429.5 162.04C434.12 162.04 438.74 162.04 443.5 162.04C443.5 159.572 443.5 157.103 443.5 154.56C441.19 154.56 438.88 154.56 436.5 154.56C436.5 152.256 436.5 149.952 436.5 147.578C431.715 147.578 426.93 147.578 422 147.578C422 145.274 422 142.97 422 140.596Z" fill="#FF5289"/>
<path d="M259.5 55.8179C257.025 55.8179 254.55 55.8179 252 55.8179C252 60.4258 252 65.0338 252 69.7814C254.475 69.7814 256.95 69.7814 259.5 69.7814C259.5 72.0854 259.5 74.3894 259.5 76.7632C266.43 76.7632 273.36 76.7632 280.5 76.7632C280.5 74.4592 280.5 72.1552 280.5 69.7814C278.19 69.7814 275.88 69.7814 273.5 69.7814C273.5 67.4774 273.5 65.1734 273.5 62.7996C268.88 62.7996 264.26 62.7996 259.5 62.7996C259.5 60.4957 259.5 58.1917 259.5 55.8179Z" fill="#FF5289"/>
<path d="M415 112.669C398.83 112.669 382.66 112.669 366 112.669C366 114.809 366 116.948 366 119.153C382.17 119.153 398.34 119.153 415 119.153C415 117.013 415 114.874 415 112.669Z" fill="#FF5289"/>
<path d="M280.5 27.3921C275.88 27.3921 271.26 27.3921 266.5 27.3921C266.5 29.6961 266.5 32.0001 266.5 34.3739C261.88 34.3739 257.26 34.3739 252.5 34.3739C252.5 32.0699 252.5 29.7659 252.5 27.3921C252.335 27.3921 252.17 27.3921 252 27.3921C252 29.6961 252 32.0001 252 34.3739C247.38 34.3739 242.76 34.3739 238 34.3739C238 36.8424 238 39.311 238 41.8543C242.785 41.8543 247.57 41.8543 252.5 41.8543C252.5 39.5503 252.5 37.2464 252.5 34.8726C256.955 34.8726 261.41 34.8726 266 34.8726C266 37.1765 266 39.4805 266 41.8543C263.855 41.8543 261.71 41.8543 259.5 41.8543C259.5 43.9937 259.5 46.1332 259.5 48.3374C261.81 48.3374 264.12 48.3374 266.5 48.3374C266.5 46.198 266.5 44.0586 266.5 41.8543C273.43 41.8543 280.36 41.8543 287.5 41.8543C287.5 43.9937 287.5 46.1332 287.5 48.3374C282.88 48.3374 278.26 48.3374 273.5 48.3374C273.5 50.806 273.5 53.2745 273.5 55.8179C282.905 55.8179 292.31 55.8179 302 55.8179C302 55.6533 302 55.4887 302 55.3192C292.76 55.3192 283.52 55.3192 274 55.3192C274 53.1798 274 51.0403 274 48.8361C278.62 48.8361 283.24 48.8361 288 48.8361C288 46.3675 288 43.899 288 41.3556C280.905 41.3556 273.81 41.3556 266.5 41.3556C266.5 39.2162 266.5 37.0768 266.5 34.8726C271.12 34.8726 275.74 34.8726 280.5 34.8726C280.5 32.404 280.5 29.9354 280.5 27.3921Z" fill="#FF5289"/>
<path d="M302 84.2437C297.215 84.2437 292.43 84.2437 287.5 84.2437C287.5 88.8516 287.5 93.4596 287.5 98.2072C292.12 98.2072 296.74 98.2072 301.5 98.2072C301.5 100.511 301.5 102.815 301.5 105.189C301.665 105.189 301.83 105.189 302 105.189C302 102.885 302 100.581 302 98.2072C306.62 98.2072 311.24 98.2072 316 98.2072C316 95.9032 316 93.5992 316 91.2254C311.38 91.2254 306.76 91.2254 302 91.2254C302 88.9214 302 86.6175 302 84.2437Z" fill="#FF5289"/>
<path d="M146 91.2251C143.69 91.2251 141.38 91.2251 139 91.2251C139 93.5291 139 95.8331 139 98.2069C140.32 98.2069 141.64 98.2069 143 98.2069C143 100.675 143 103.144 143 105.687C139.37 105.687 135.74 105.687 132 105.687C132 107.827 132 109.966 132 112.17C136.62 112.17 141.24 112.17 146 112.17C146 109.866 146 107.562 146 105.189C150.455 105.189 154.91 105.189 159.5 105.189C159.5 102.885 159.5 100.581 159.5 98.2069C155.045 98.2069 150.59 98.2069 146 98.2069C146 95.9029 146 93.5989 146 91.2251Z" fill="#FF5289"/>
<path d="M479 126.134C462.665 126.134 446.33 126.134 429.5 126.134C429.5 126.299 429.5 126.463 429.5 126.633C445.67 126.633 461.84 126.633 478.5 126.633C478.5 128.772 478.5 130.912 478.5 133.116C477.291 133.107 477.291 133.107 476.057 133.099C467.522 133.058 459.027 133.27 450.5 133.615C450.5 135.919 450.5 138.223 450.5 140.597C459.74 140.597 468.98 140.597 478.5 140.597C478.5 141.584 478.5 142.571 478.5 143.589C478.665 143.589 478.83 143.589 479 143.589C479.707 140.192 479.293 137.055 479 133.615C483.62 133.615 488.24 133.615 493 133.615C493 133.45 493 133.286 493 133.116C488.38 133.116 483.76 133.116 479 133.116C479 130.812 479 128.508 479 126.134Z" fill="#FF5289"/>
<path d="M394 133.615C389.38 133.615 384.76 133.615 380 133.615C380 138.223 380 142.831 380 147.578C382.145 147.578 384.29 147.578 386.5 147.578C386.5 156.959 386.5 166.339 386.5 176.004C386.665 176.004 386.83 176.004 387 176.004C387 166.624 387 157.243 387 147.578C389.31 147.578 391.62 147.578 394 147.578C394 142.97 394 138.362 394 133.615Z" fill="#FF5289"/>
<path d="M302 55.8179C292.595 55.8179 283.19 55.8179 273.5 55.8179C273.5 58.1219 273.5 60.4258 273.5 62.7996C282.905 62.7996 292.31 62.7996 302 62.7996C302 60.4957 302 58.1917 302 55.8179Z" fill="#FF5289"/>
<path d="M457.344 140.565C456.675 140.568 456.006 140.57 455.337 140.572C453.725 140.578 452.112 140.587 450.5 140.596C450.5 142.9 450.5 145.204 450.5 147.578C455.285 147.578 460.07 147.578 465 147.578C465 149.882 465 152.186 465 154.56C467.31 154.56 469.62 154.56 472 154.56C472 152.256 472 149.952 472 147.578C472.66 147.414 473.32 147.249 474 147.079C473.312 145.833 473.312 145.833 472.5 144.586C472.17 144.586 471.84 144.586 471.5 144.586C471.5 143.434 471.5 142.282 471.5 141.095C466.771 140.652 462.092 140.534 457.344 140.565Z" fill="#FF5289"/>
<path d="M301.5 98.207C294.57 98.207 287.64 98.207 280.5 98.207C280.5 100.511 280.5 102.815 280.5 105.189C285.285 105.189 290.07 105.189 295 105.189C295 107.493 295 109.797 295 112.171C297.145 112.171 299.29 112.171 301.5 112.171C301.5 107.563 301.5 102.955 301.5 98.207Z" fill="#FF5289"/>
<path d="M323.5 105.189C316.405 105.189 309.31 105.189 302 105.189C302 107.493 302 109.797 302 112.171C306.62 112.171 311.24 112.171 316 112.171C316 114.639 316 117.108 316 119.651C332.5 119.651 349 119.651 366 119.651C366 117.183 366 114.714 366 112.171C365.835 112.171 365.67 112.171 365.5 112.171C365.5 114.475 365.5 116.779 365.5 119.153C349.33 119.153 333.16 119.153 316.5 119.153C316.5 117.013 316.5 114.874 316.5 112.669C318.81 112.669 321.12 112.669 323.5 112.669C323.5 110.201 323.5 107.732 323.5 105.189Z" fill="#FF5289"/>
<path d="M217 133.615C214.69 133.615 212.38 133.615 210 133.615C210 152.211 210 170.808 210 189.968C212.145 189.968 214.29 189.968 216.5 189.968C216.5 189.638 216.5 189.309 216.5 188.97C214.685 188.97 212.87 188.97 211 188.97C211 177.779 211 166.589 211 155.059C212.98 154.894 214.96 154.73 217 154.56C217 147.648 217 140.736 217 133.615Z" fill="#FF5289"/>
<path d="M252 76.7632C249.69 76.7632 247.38 76.7632 245 76.7632C245 79.2317 245 81.7003 245 84.2437C247.31 84.2437 249.62 84.2437 252 84.2437C252 86.5476 252 88.8516 252 91.2254C256.785 91.2254 261.57 91.2254 266.5 91.2254C266.5 88.9214 266.5 86.6175 266.5 84.2437C268.81 84.2437 271.12 84.2437 273.5 84.2437C273.5 84.0791 273.5 83.9145 273.5 83.745C266.405 83.745 259.31 83.745 252 83.745C252 81.441 252 79.137 252 76.7632Z" fill="#FF5289"/>
<path d="M172.012 41.3066C171.49 41.3077 171.49 41.3077 170.957 41.3087C169.867 41.3115 168.777 41.3177 167.688 41.3241C166.939 41.3266 166.191 41.3289 165.443 41.3309C163.629 41.3364 161.814 41.345 160 41.3553C160 41.5199 160 41.6844 160 41.854C162.31 41.854 164.62 41.854 167 41.854C167 44.158 167 46.462 167 48.8358C169.31 48.8358 171.62 48.8358 174 48.8358C174 50.9752 174 53.1146 174 55.3188C171.525 55.3188 169.05 55.3188 166.5 55.3188C166.5 59.104 166.5 62.8891 166.5 66.7889C166.665 66.7889 166.83 66.7889 167 66.7889C167 63.1683 167 59.5478 167 55.8175C171.62 55.8175 176.24 55.8175 181 55.8175C181 51.2096 181 46.6016 181 41.854C177.898 41.5446 175.086 41.2941 172.012 41.3066Z" fill="#FF5289"/>
<path d="M195.5 91.2251C188.405 91.2251 181.31 91.2251 174 91.2251C174 93.5291 174 95.8331 174 98.2069C181.095 98.2069 188.19 98.2069 195.5 98.2069C195.5 95.9029 195.5 93.5989 195.5 91.2251Z" fill="#FF5289"/>
<path d="M174 84.2437C171.69 84.2437 169.38 84.2437 167 84.2437C167 86.5476 167 88.8516 167 91.2254C164.69 91.2254 162.38 91.2254 160 91.2254C160 93.5294 160 95.8334 160 98.2072C164.62 98.2072 169.24 98.2072 174 98.2072C174 93.5992 174 88.9913 174 84.2437Z" fill="#FF5289"/>
<path d="M273.5 84.2437C271.19 84.2437 268.88 84.2437 266.5 84.2437C266.5 88.8516 266.5 93.4596 266.5 98.2072C271.12 98.2072 275.74 98.2072 280.5 98.2072C280.5 95.9032 280.5 93.5992 280.5 91.2254C278.19 91.2254 275.88 91.2254 273.5 91.2254C273.5 88.9214 273.5 86.6175 273.5 84.2437Z" fill="#FF5289"/>
<path d="M238 55.8179C233.38 55.8179 228.76 55.8179 224 55.8179C224 58.1219 224 60.4258 224 62.7996C226.31 62.7996 228.62 62.7996 231 62.7996C231 65.1036 231 67.4076 231 69.7814C233.31 69.7814 235.62 69.7814 238 69.7814C238 65.1734 238 60.5655 238 55.8179Z" fill="#FF5289"/>
<path d="M287.5 41.854C280.57 41.854 273.64 41.854 266.5 41.854C266.5 43.9934 266.5 46.1328 266.5 48.3371C264.19 48.3371 261.88 48.3371 259.5 48.3371C259.5 48.5016 259.5 48.6662 259.5 48.8358C268.853 48.9054 278.155 48.7337 287.5 48.3371C287.5 46.1977 287.5 44.0582 287.5 41.854Z" fill="#FF5289"/>
<path d="M202.5 69.7812C200.355 69.7812 198.21 69.7812 196 69.7812C196 76.8578 196 83.9343 196 91.2253C198.145 91.2253 200.29 91.2253 202.5 91.2253C202.5 84.1487 202.5 77.0722 202.5 69.7812Z" fill="#FF5289"/>
<path d="M152.5 112.669C145.735 112.669 138.97 112.669 132 112.669C132 114.809 132 116.948 132 119.153C138.765 119.153 145.53 119.153 152.5 119.153C152.5 117.013 152.5 114.874 152.5 112.669Z" fill="#FF5289"/>
<path d="M209.5 112.669C207.355 112.669 205.21 112.669 203 112.669C203 119.417 203 126.164 203 133.116C205.145 133.116 207.29 133.116 209.5 133.116C209.5 126.369 209.5 119.621 209.5 112.669Z" fill="#FF5289"/>
<path d="M181 13.4282C178.855 13.4282 176.71 13.4282 174.5 13.4282C174.5 18.0362 174.5 22.6442 174.5 27.3918C176.15 27.3918 177.8 27.3918 179.5 27.3918C179.5 29.5312 179.5 31.6706 179.5 33.8748C180.16 33.7103 180.82 33.5457 181.5 33.3761C181.5 33.8698 181.5 34.3636 181.5 34.8722C182.655 34.8722 183.81 34.8722 185 34.8722C185 32.4037 185 29.9351 185 27.3918C183.68 27.3918 182.36 27.3918 181 27.3918C181 22.7838 181 18.1758 181 13.4282Z" fill="#FF5289"/>
<path d="M181 55.8179C176.38 55.8179 171.76 55.8179 167 55.8179C167 59.4384 167 63.059 167 66.7892C169.475 66.7892 171.95 66.7892 174.5 66.7892C174.5 65.4727 174.5 64.1561 174.5 62.7996C176.645 62.7996 178.79 62.7996 181 62.7996C181 60.4957 181 58.1917 181 55.8179Z" fill="#FF5289"/>
<path d="M465 133.615C460.215 133.615 455.43 133.615 450.5 133.615C450.5 135.919 450.5 138.223 450.5 140.597C455.285 140.597 460.07 140.597 465 140.597C465 138.293 465 135.989 465 133.615Z" fill="#FF5289"/>
<path d="M167 41.854C164.69 41.854 162.38 41.854 160 41.854C160 43.9934 160 46.1328 160 48.3371C157.69 48.3371 155.38 48.3371 153 48.3371C153 50.8056 153 53.2742 153 55.8175C155.31 55.8175 157.62 55.8175 160 55.8175C160 53.5136 160 51.2096 160 48.8358C162.31 48.8358 164.62 48.8358 167 48.8358C167 46.5318 167 44.2278 167 41.854Z" fill="#FF5289"/>
<path d="M429 119.651C424.38 119.651 419.76 119.651 415 119.651C415 121.955 415 124.259 415 126.633C419.62 126.633 424.24 126.633 429 126.633C429 124.329 429 122.025 429 119.651Z" fill="#FF5289"/>
<path d="M174 98.207C169.38 98.207 164.76 98.207 160 98.207C160 100.511 160 102.815 160 105.189C164.62 105.189 169.24 105.189 174 105.189C174 102.885 174 100.581 174 98.207Z" fill="#FF5289"/>
<path d="M316 91.2251C311.38 91.2251 306.76 91.2251 302 91.2251C302 93.5291 302 95.8331 302 98.2069C306.62 98.2069 311.24 98.2069 316 98.2069C316 95.9029 316 93.5989 316 91.2251Z" fill="#FF5289"/>
<path d="M153 55.8179C150.69 55.8179 148.38 55.8179 146 55.8179C146 60.4258 146 65.0338 146 69.7814C148.31 69.7814 150.62 69.7814 153 69.7814C153 65.1734 153 60.5655 153 55.8179Z" fill="#FF5289"/>
<path d="M160 55.8179C157.69 55.8179 155.38 55.8179 153 55.8179C153 60.4258 153 65.0338 153 69.7814C155.31 69.7814 157.62 69.7814 160 69.7814C160 65.1734 160 60.5655 160 55.8179Z" fill="#FF5289"/>
<path d="M273.5 55.8179C268.88 55.8179 264.26 55.8179 259.5 55.8179C259.5 58.1219 259.5 60.4258 259.5 62.7996C264.12 62.7996 268.74 62.7996 273.5 62.7996C273.5 60.4957 273.5 58.1917 273.5 55.8179Z" fill="#FF5289"/>
<path d="M238 48.8359C233.38 48.8359 228.76 48.8359 224 48.8359C224 51.1399 224 53.4439 224 55.8177C228.62 55.8177 233.24 55.8177 238 55.8177C238 53.5137 238 51.2097 238 48.8359Z" fill="#FF5289"/>
<path d="M273.5 48.8359C268.88 48.8359 264.26 48.8359 259.5 48.8359C259.5 51.1399 259.5 53.4439 259.5 55.8177C264.12 55.8177 268.74 55.8177 273.5 55.8177C273.5 53.5137 273.5 51.2097 273.5 48.8359Z" fill="#FF5289"/>
<path d="M167 20.4102C164.69 20.4102 162.38 20.4102 160 20.4102C160 25.0181 160 29.6261 160 34.3737C162.31 34.3737 164.62 34.3737 167 34.3737C167 29.7657 167 25.1578 167 20.4102Z" fill="#FF5289"/>
<path d="M231 20.4102C226.38 20.4102 221.76 20.4102 217 20.4102C217 22.7141 217 25.0181 217 27.3919C221.62 27.3919 226.24 27.3919 231 27.3919C231 25.0879 231 22.784 231 20.4102Z" fill="#FF5289"/>
<path d="M174 48.8359C169.38 48.8359 164.76 48.8359 160 48.8359C160 51.1399 160 53.4439 160 55.8177C164.702 55.8704 169.316 55.6809 174 55.319C174 53.1796 174 51.0402 174 48.8359Z" fill="#FF5289"/>
<path d="M252 27.8906C247.38 27.8906 242.76 27.8906 238 27.8906C238 30.03 238 32.1695 238 34.3737C242.62 34.3737 247.24 34.3737 252 34.3737C252 32.2343 252 30.0949 252 27.8906Z" fill="#FF5289"/>
<path d="M252 41.854C247.38 41.854 242.76 41.854 238 41.854C238.165 43.9934 238.33 46.1328 238.5 48.3371C242.955 48.3371 247.41 48.3371 252 48.3371C252 46.1977 252 44.0582 252 41.854Z" fill="#FF5289"/>
<path d="M145.5 70.2798C143.355 70.2798 141.21 70.2798 139 70.2798C139 74.7232 139 79.1666 139 83.7446C141.145 83.7446 143.29 83.7446 145.5 83.7446C145.5 79.3012 145.5 74.8578 145.5 70.2798Z" fill="#FF5289"/>
<path d="M223.5 41.854C219.045 41.854 214.59 41.854 210 41.854C210 43.9934 210 46.1328 210 48.3371C214.455 48.3371 218.91 48.3371 223.5 48.3371C223.5 46.1977 223.5 44.0582 223.5 41.854Z" fill="#FF5289"/>
<path d="M266 34.8726C261.545 34.8726 257.09 34.8726 252.5 34.8726C252.5 37.012 252.5 39.1514 252.5 41.3556C256.955 41.3556 261.41 41.3556 266 41.3556C266 39.2162 266 37.0768 266 34.8726Z" fill="#FF5289"/>
<path d="M209.5 34.8726C205.045 34.8726 200.59 34.8726 196 34.8726C196 37.012 196 39.1514 196 41.3556C200.455 41.3556 204.91 41.3556 209.5 41.3556C209.5 39.2162 209.5 37.0768 209.5 34.8726Z" fill="#FF5289"/>
<path d="M252 34.8726C247.545 34.8726 243.09 34.8726 238.5 34.8726C238.5 37.012 238.5 39.1514 238.5 41.3556C242.955 41.3556 247.41 41.3556 252 41.3556C252 39.2162 252 37.0768 252 34.8726Z" fill="#FF5289"/>
<path d="M280 27.8906C275.545 27.8906 271.09 27.8906 266.5 27.8906C266.5 30.03 266.5 32.1695 266.5 34.3737C270.955 34.3737 275.41 34.3737 280 34.3737C280 32.2343 280 30.0949 280 27.8906Z" fill="#FF5289"/>
<path d="M142.5 98.207C138.87 98.207 135.24 98.207 131.5 98.207C131.5 100.511 131.5 102.815 131.5 105.189C135.13 105.189 138.76 105.189 142.5 105.189C142.5 102.885 142.5 100.581 142.5 98.207Z" fill="#FF5289"/>
<path d="M273.5 83.7446C266.57 83.7446 259.64 83.7446 252.5 83.7446C252.5 83.9092 252.5 84.0738 252.5 84.2433C254.81 84.2433 257.12 84.2433 259.5 84.2433C259.5 86.5473 259.5 88.8513 259.5 91.2251C261.81 91.2251 264.12 91.2251 266.5 91.2251C266.5 88.9211 266.5 86.6171 266.5 84.2433C268.81 84.2433 271.12 84.2433 273.5 84.2433C273.5 84.0788 273.5 83.9142 273.5 83.7446Z" fill="#FF5289"/>
<path d="M252 27.3921C244.905 27.3921 237.81 27.3921 230.5 27.3921C230.665 29.6961 230.83 32.0001 231 34.3739C233.31 34.3739 235.62 34.3739 238 34.3739C238 32.2344 238 30.095 238 27.8908C242.62 27.8908 247.24 27.8908 252 27.8908C252 27.7262 252 27.5616 252 27.3921Z" fill="#FF5289"/>
<path d="M195.5 27.8906C193.19 27.8906 190.88 27.8906 188.5 27.8906C188.5 32.1695 188.5 36.4483 188.5 40.8568C188.83 40.8568 189.16 40.8568 189.5 40.8568C189.611 40.0577 189.714 39.2575 189.812 38.4568C189.871 38.0113 189.929 37.5658 189.988 37.1068C190 35.8698 190 35.8698 189 34.3737C191.145 34.3737 193.29 34.3737 195.5 34.3737C195.5 32.2343 195.5 30.0949 195.5 27.8906Z" fill="#FF5289"/>
<path d="M302 84.2437C299.525 84.2437 297.05 84.2437 294.5 84.2437C294.5 86.5476 294.5 88.8516 294.5 91.2254C296.975 91.2254 299.45 91.2254 302 91.2254C302 88.9214 302 86.6175 302 84.2437Z" fill="#FF5289"/>
<path d="M229.029 27.3433C227.353 27.3595 225.676 27.3757 224 27.392C224 29.8605 224 32.3291 224 34.8724C227.465 34.6256 227.465 34.6256 231 34.3737C231.049 29.3575 231.049 29.3575 231 27.8907C230.5 27.392 230.5 27.392 229.029 27.3433Z" fill="#FF5289"/>
<path d="M379.5 140.596C377.19 140.596 374.88 140.596 372.5 140.596C372.5 142.9 372.5 145.204 372.5 147.578C374.81 147.578 377.12 147.578 379.5 147.578C379.5 145.274 379.5 142.97 379.5 140.596Z" fill="#FF5289"/>
<path d="M238 133.615C235.69 133.615 233.38 133.615 231 133.615C231 135.919 231 138.223 231 140.597C233.31 140.597 235.62 140.597 238 140.597C238 138.293 238 135.989 238 133.615Z" fill="#FF5289"/>
<path d="M372.5 133.615C370.19 133.615 367.88 133.615 365.5 133.615C365.5 135.919 365.5 138.223 365.5 140.597C367.81 140.597 370.12 140.597 372.5 140.597C372.5 138.293 372.5 135.989 372.5 133.615Z" fill="#FF5289"/>
<path d="M394 133.615C391.69 133.615 389.38 133.615 387 133.615C387 135.919 387 138.223 387 140.597C389.31 140.597 391.62 140.597 394 140.597C394 138.293 394 135.989 394 133.615Z" fill="#FF5289"/>
<path d="M224 112.17C221.69 112.17 219.38 112.17 217 112.17C217 114.474 217 116.778 217 119.152C219.31 119.152 221.62 119.152 224 119.152C224 116.848 224 114.544 224 112.17Z" fill="#FF5289"/>
<path d="M280.5 98.207C278.19 98.207 275.88 98.207 273.5 98.207C273.5 100.511 273.5 102.815 273.5 105.189C275.81 105.189 278.12 105.189 280.5 105.189C280.5 102.885 280.5 100.581 280.5 98.207Z" fill="#FF5289"/>
<path d="M266.5 91.2251C264.19 91.2251 261.88 91.2251 259.5 91.2251C259.5 93.5291 259.5 95.8331 259.5 98.2069C261.81 98.2069 264.12 98.2069 266.5 98.2069C266.5 95.9029 266.5 93.5989 266.5 91.2251Z" fill="#FF5289"/>
<path d="M195.5 84.2437C193.19 84.2437 190.88 84.2437 188.5 84.2437C188.5 86.5476 188.5 88.8516 188.5 91.2254C190.81 91.2254 193.12 91.2254 195.5 91.2254C195.5 88.9214 195.5 86.6175 195.5 84.2437Z" fill="#FF5289"/>
<path d="M252 76.7632C249.69 76.7632 247.38 76.7632 245 76.7632C245 79.0672 245 81.3712 245 83.745C247.31 83.745 249.62 83.745 252 83.745C252 81.441 252 79.137 252 76.7632Z" fill="#FF5289"/>
<path d="M153 69.7812C150.69 69.7812 148.38 69.7812 146 69.7812C146 72.0852 146 74.3892 146 76.763C148.31 76.763 150.62 76.763 153 76.763C153 74.459 153 72.1551 153 69.7812Z" fill="#FF5289"/>
<path d="M245 69.7812C242.69 69.7812 240.38 69.7812 238 69.7812C238 72.0852 238 74.3892 238 76.763C240.31 76.763 242.62 76.763 245 76.763C245 74.459 245 72.1551 245 69.7812Z" fill="#FF5289"/>
<path d="M266.5 69.7812C264.19 69.7812 261.88 69.7812 259.5 69.7812C259.5 72.0852 259.5 74.3892 259.5 76.763C261.81 76.763 264.12 76.763 266.5 76.763C266.5 74.459 266.5 72.1551 266.5 69.7812Z" fill="#FF5289"/>
<path d="M202.5 62.7993C200.19 62.7993 197.88 62.7993 195.5 62.7993C195.5 65.1033 195.5 67.4073 195.5 69.7811C197.81 69.7811 200.12 69.7811 202.5 69.7811C202.5 67.4771 202.5 65.1731 202.5 62.7993Z" fill="#FF5289"/>
<path d="M174 27.3921C171.69 27.3921 169.38 27.3921 167 27.3921C167 29.6961 167 32.0001 167 34.3739C169.31 34.3739 171.62 34.3739 174 34.3739C174 32.0699 174 29.7659 174 27.3921Z" fill="#FF5289"/>
<path d="M429.5 126.633C429.5 128.937 429.5 131.241 429.5 133.615C434.12 133.615 438.74 133.615 443.5 133.615C443.5 133.45 443.5 133.285 443.5 133.116C441.19 133.116 438.88 133.116 436.5 133.116C436.521 132.314 436.541 131.511 436.562 130.685C436.598 129.317 436.598 129.317 436.5 128.129C435.21 126.843 434.51 126.946 432.719 126.82C432.223 126.783 431.727 126.745 431.217 126.707C430 126.633 430 126.633 429.5 126.633Z" fill="#FF5289"/>
<path d="M294.5 84.2437C292.19 84.2437 289.88 84.2437 287.5 84.2437C287.5 86.3831 287.5 88.5225 287.5 90.7267C288.882 91.4161 290.023 91.2729 291.562 91.2566C292.532 91.2463 293.501 91.236 294.5 91.2254C294.5 88.9214 294.5 86.6175 294.5 84.2437Z" fill="#FF5289"/>
<path d="M238 41.854C235.69 41.854 233.38 41.854 231 41.854C230.902 43.2501 230.805 44.6462 230.707 46.0423C230.618 47.417 230.618 47.417 229.5 48.3371C232.305 48.3371 235.11 48.3371 238 48.3371C238 46.1977 238 44.0582 238 41.854Z" fill="#FF5289"/>
<path d="M429 119.651C424.545 119.651 420.09 119.651 415.5 119.651C415.5 119.815 415.5 119.98 415.5 120.15C417.81 120.15 420.12 120.15 422.5 120.15C422.5 122.124 422.5 124.099 422.5 126.134C424.645 126.134 426.79 126.134 429 126.134C429 123.995 429 121.855 429 119.651Z" fill="#FF5289"/>
<path d="M202.5 98.207C200.355 98.207 198.21 98.207 196 98.207C196 100.511 196 102.815 196 105.189C198.145 105.189 200.29 105.189 202.5 105.189C202.5 102.885 202.5 100.581 202.5 98.207Z" fill="#FF5289"/>
<path d="M146 84.2437C143.69 84.2437 141.38 84.2437 139 84.2437C139 86.3831 139 88.5225 139 90.7267C141.31 90.7267 143.62 90.7267 146 90.7267C146 88.5873 146 86.4479 146 84.2437Z" fill="#FF5289"/>
<path d="M287.5 41.854C285.19 41.854 282.88 41.854 280.5 41.854C280.5 43.9934 280.5 46.1328 280.5 48.3371C282.81 48.3371 285.12 48.3371 287.5 48.3371C287.5 46.1977 287.5 44.0582 287.5 41.854Z" fill="#FF5289"/>
<path d="M266.5 41.854C264.19 41.854 261.88 41.854 259.5 41.854C259.5 43.9934 259.5 46.1328 259.5 48.3371C261.81 48.3371 264.12 48.3371 266.5 48.3371C266.5 46.1977 266.5 44.0582 266.5 41.854Z" fill="#FF5289"/>
<path d="M139 84.2437C136.69 84.2437 134.38 84.2437 132 84.2437C132 86.3831 132 88.5225 132 90.7267C134.145 90.7267 136.29 90.7267 138.5 90.7267C139.463 88.806 139.024 86.338 139 84.2437Z" fill="#FF5289"/>
<path d="M210 34.3735C203.07 34.3735 196.14 34.3735 189 34.3735C189 34.5381 189 34.7027 189 34.8722C191.145 34.8722 193.29 34.8722 195.5 34.8722C195.5 37.1762 195.5 39.4802 195.5 41.854C200.12 41.854 204.74 41.854 209.5 41.854C209.5 43.6643 209.5 45.4746 209.5 47.3397C209.665 47.3397 209.83 47.3397 210 47.3397C210 45.5294 210 43.7191 210 41.854C214.455 41.854 218.91 41.854 223.5 41.854C223.5 43.9934 223.5 46.1328 223.5 48.3371C219.045 48.3371 214.59 48.3371 210 48.3371C210 48.5016 210 48.6662 210 48.8358C214.455 48.8358 218.91 48.8358 223.5 48.8358C223.665 49.1649 223.83 49.4941 224 49.8332C224 47.0355 224 44.2378 224 41.3553C219.38 41.3553 214.76 41.3553 210 41.3553C210 39.0513 210 36.7473 210 34.3735ZM209.5 34.8722C209.5 37.0116 209.5 39.1511 209.5 41.3553C205.045 41.3553 200.59 41.3553 196 41.3553C196 39.2159 196 37.0765 196 34.8722C200.455 34.8722 204.91 34.8722 209.5 34.8722Z" fill="#FF5289"/>
<path d="M125 105.189C125 107.493 125 109.797 125 112.171C127.145 112.171 129.29 112.171 131.5 112.171C131.5 110.031 131.5 107.892 131.5 105.688C125.562 105.189 125.562 105.189 125 105.189Z" fill="#FF5289"/>
<path d="M159.5 105.688C157.355 105.688 155.21 105.688 153 105.688C153 107.827 153 109.966 153 112.171C155.145 112.171 157.29 112.171 159.5 112.171C159.5 110.031 159.5 107.892 159.5 105.688Z" fill="#FF5289"/>
<path d="M308.5 70.2798C306.355 70.2798 304.21 70.2798 302 70.2798C302 72.4192 302 74.5586 302 76.7629C304.145 76.7629 306.29 76.7629 308.5 76.7629C308.5 74.6234 308.5 72.484 308.5 70.2798Z" fill="#FF5289"/>
<path d="M159.5 77.2617C157.355 77.2617 155.21 77.2617 153 77.2617C153 79.4011 153 81.5405 153 83.7448C157.813 83.8695 157.813 83.8695 159.5 82.7474C159.708 80.9042 159.565 79.1213 159.5 77.2617Z" fill="#FF5289"/>
<path d="M153 48.8359C152.835 48.8359 152.67 48.8359 152.5 48.8359C152.5 50.9754 152.5 53.1148 152.5 55.319C150.19 55.319 147.88 55.319 145.5 55.319C145.5 60.0915 145.5 64.8641 145.5 69.7812C143.355 69.7812 141.21 69.7812 139 69.7812C139 69.9458 139 70.1104 139 70.2799C141.145 70.2799 143.29 70.2799 145.5 70.2799C145.5 74.7233 145.5 79.1667 145.5 83.7448C143.355 83.7448 141.21 83.7448 139 83.7448C139 83.9094 139 84.0739 139 84.2435C141.31 84.2435 143.62 84.2435 146 84.2435C146 86.3829 146 88.5223 146 90.7266C146.99 90.7266 147.98 90.7266 149 90.7266C149 90.562 149 90.3974 149 90.2279C148.175 90.2279 147.35 90.2279 146.5 90.2279C146.665 88.5822 146.83 86.9365 147 85.2409C147.825 85.2409 148.65 85.2409 149.5 85.2409C149.5 84.7472 149.5 84.2535 149.5 83.7448C148.015 83.4979 148.015 83.4979 146.5 83.2461C146.335 74.1947 146.17 65.1434 146 55.8177C148.31 55.8177 150.62 55.8177 153 55.8177C153 53.5137 153 51.2097 153 48.8359Z" fill="#FF5289"/>
<path d="M174 58.311C171.69 58.311 169.38 58.311 167 58.311C167 59.7922 167 61.2733 167 62.7993C169.31 62.7993 171.62 62.7993 174 62.7993C174 61.3182 174 59.8371 174 58.311Z" fill="#FF5289"/>
<path d="M188.5 35.3711C187.675 35.3711 186.85 35.3711 186 35.3711C185.835 36.1939 185.67 37.0168 185.5 37.8646C184.18 37.7 182.86 37.5354 181.5 37.3659C181.5 38.6824 181.5 39.999 181.5 41.3555C183.645 41.3555 185.79 41.3555 188 41.3555C188.165 39.3806 188.33 37.4058 188.5 35.3711Z" fill="#FF5289"/>
<path d="M302 55.8179C292.76 55.8179 283.52 55.8179 274 55.8179C274 55.9824 274 56.147 274 56.3166C282.91 56.4811 291.82 56.6457 301 56.8153C301 58.461 301 60.1067 301 61.8022C294.318 62.0491 294.318 62.0491 287.5 62.3009C287.5 62.4655 287.5 62.6301 287.5 62.7996C292.285 62.7996 297.07 62.7996 302 62.7996C302 60.4957 302 58.1917 302 55.8179Z" fill="#FF5289"/>
<path d="M142.5 98.207C141.345 98.207 140.19 98.207 139 98.207C139 100.511 139 102.815 139 105.189C140.155 105.189 141.31 105.189 142.5 105.189C142.5 102.885 142.5 100.581 142.5 98.207Z" fill="#FF5289"/>
<path d="M174 62.7993C171.69 62.7993 169.38 62.7993 167 62.7993C167 63.9513 167 65.1033 167 66.2902C169.31 66.2902 171.62 66.2902 174 66.2902C174 65.1382 174 63.9862 174 62.7993Z" fill="#FF5289"/>
<path d="M184.5 27.8906C183.345 27.8906 182.19 27.8906 181 27.8906C180.986 28.7737 180.977 29.6568 180.969 30.54C180.963 31.0317 180.957 31.5235 180.951 32.0302C181 33.3763 181 33.3763 181.5 34.8724C182.49 34.8724 183.48 34.8724 184.5 34.8724C184.5 32.5684 184.5 30.2644 184.5 27.8906Z" fill="#FF5289"/>
<path d="M224 33.875C220.535 34.1219 220.535 34.1219 217 34.3737C217 35.1965 217 36.0194 217 36.8672C224.043 37.1302 224.043 37.1302 227.5 35.3711C228.661 35.1689 229.828 34.9917 231 34.8724C231 34.7078 231 34.5433 231 34.3737C230.208 34.3601 229.417 34.3505 228.625 34.3425C227.964 34.3339 227.964 34.3339 227.289 34.325C226.109 34.3696 225.128 34.5387 224 34.8724C224 34.5433 224 34.2141 224 33.875Z" fill="#FF5289"/>
<path d="M252 27.8906C247.545 27.8906 243.09 27.8906 238.5 27.8906C238.5 28.0552 238.5 28.2198 238.5 28.3893C242.79 28.3893 247.08 28.3893 251.5 28.3893C251.335 29.8705 251.17 31.3516 251 32.8776C247.04 33.0422 243.08 33.2067 239 33.3763C238.835 33.7054 238.67 34.0346 238.5 34.3737C242.955 34.3737 247.41 34.3737 252 34.3737C252 32.2343 252 30.0949 252 27.8906Z" fill="#FF5289"/>
<path d="M171.199 69.6838C169.799 69.7163 168.4 69.7488 167 69.7812C167 71.5915 167 73.4018 167 75.2669C168.684 74.4272 169.918 73.6158 171.375 72.4617C171.775 72.1467 172.174 71.8317 172.586 71.5072C172.888 71.2668 173.189 71.0263 173.5 70.7786C172.5 69.7812 172.5 69.7812 171.199 69.6838Z" fill="#FF5289"/>
<path d="M174 66.7891C171.69 66.7891 169.38 66.7891 167 66.7891C167 67.7765 167 68.7639 167 69.7812C169.31 69.7812 171.62 69.7812 174 69.7812C174 68.7938 174 67.8064 174 66.7891Z" fill="#FF5289"/>
<path d="M316 91.2251C313.525 91.2251 311.05 91.2251 308.5 91.2251C308.5 91.3897 308.5 91.5542 308.5 91.7238C310.645 91.7238 312.79 91.7238 315 91.7238C315 93.5341 315 95.3443 315 97.2095C308.565 97.4563 308.565 97.4563 302 97.7082C302 97.8727 302 98.0373 302 98.2069C306.62 98.2069 311.24 98.2069 316 98.2069C316 95.9029 316 93.5989 316 91.2251Z" fill="#FF5289"/>
<path d="M167 20.4102C164.69 20.4102 162.38 20.4102 160 20.4102C160 22.385 160 24.3598 160 26.3945C160.165 26.3945 160.33 26.3945 160.5 26.3945C160.5 24.7488 160.5 23.1031 160.5 21.4076C163.16 21.4362 163.16 21.4362 165.5 22.4049C165.642 23.8054 165.724 25.2059 165.811 26.6108C166 27.8906 166 27.8906 167 28.888C167 26.0903 167 23.2926 167 20.4102Z" fill="#FF5289"/>
<path d="M146.5 84.7422C146.5 86.5525 146.5 88.3627 146.5 90.2279C147.49 90.2279 148.48 90.2279 149.5 90.2279C149.5 88.5822 149.5 86.9365 149.5 85.2409C147.062 84.7422 147.062 84.7422 146.5 84.7422Z" fill="#FF5289"/>
<path d="M139 89.729C138.835 90.0581 138.67 90.3873 138.5 90.7264C136.355 90.7264 134.21 90.7264 132 90.7264C132 90.891 132 91.0555 132 91.2251C134.145 91.2251 136.29 91.2251 138.5 91.2251C138.5 93.3645 138.5 95.5039 138.5 97.7082C136.19 97.7082 133.88 97.7082 131.5 97.7082C131.5 97.8727 131.5 98.0373 131.5 98.2069C133.975 98.2069 136.45 98.2069 139 98.2069C139 95.9029 139 93.5989 139 91.2251C141.31 91.2251 143.62 91.2251 146 91.2251C146 91.0605 146 90.896 146 90.7264C143.69 90.7264 141.38 90.7264 139 90.7264C139 90.3973 139 90.0681 139 89.729Z" fill="#FF5289"/>
<path d="M160.5 28.3892C160.335 28.3892 160.17 28.3892 160 28.3892C160 30.364 160 32.3388 160 34.3735C162.31 34.3735 164.62 34.3735 167 34.3735C166.67 33.8798 166.34 33.3861 166 32.8774C164.35 33.042 162.7 33.2066 161 33.3761C161.01 32.6459 161.021 31.9156 161.031 31.1632C161.042 30.4047 161.036 29.6455 161 28.8879C160.835 28.7233 160.67 28.5587 160.5 28.3892Z" fill="#FF5289"/>
<path d="M185.5 34.8726C184.015 34.8726 182.53 34.8726 181 34.8726C181.495 35.6131 181.495 35.6131 182 36.3687C182.165 36.8624 182.33 37.3561 182.5 37.8647C183.49 37.8647 184.48 37.8647 185.5 37.8647C185.5 36.8773 185.5 35.8899 185.5 34.8726Z" fill="#FF5289"/>
<path d="M252 41.854C247.38 41.854 242.76 41.854 238 41.854C238 42.0186 238 42.1831 238 42.3527C238.318 42.3626 238.635 42.3725 238.962 42.3827C240.412 42.4304 241.862 42.485 243.312 42.5397C244.062 42.5629 244.062 42.5629 244.826 42.5865C247.389 42.688 249.601 42.8445 252 43.8488C252 43.1905 252 42.5322 252 41.854Z" fill="#FF5289"/>
<path d="M162 76.7632C161.175 76.7632 160.35 76.7632 159.5 76.7632C159.5 77.7506 159.5 78.738 159.5 79.7554C160.985 79.5085 160.985 79.5085 162.5 79.2567C162.335 78.4338 162.17 77.611 162 76.7632Z" fill="#FF5289"/>
<path d="M231 34.3738C225.721 34.2818 225.721 34.2818 223.5 34.8725C223.5 35.3662 223.5 35.8599 223.5 36.3686C223.005 36.5332 222.51 36.6977 222 36.8673C223.367 36.6268 224.624 36.3255 225.938 35.8699C227.623 35.3321 229.246 35.0824 231 34.8725C231 34.7079 231 34.5434 231 34.3738Z" fill="#FF5289"/>
<path d="M189 34.8726C188.835 34.8726 188.67 34.8726 188.5 34.8726C188.5 36.8474 188.5 38.8222 188.5 40.8569C188.83 40.8569 189.16 40.8569 189.5 40.8569C189.611 40.0474 189.713 39.2368 189.812 38.4258C189.871 37.9745 189.929 37.5232 189.988 37.0583C189.992 36.6661 189.996 36.274 190 35.87C189.67 35.5408 189.34 35.2117 189 34.8726Z" fill="#FF5289"/>
<path d="M148.5 86.2383C148.17 86.2383 147.84 86.2383 147.5 86.2383C147.406 87.672 147.406 87.672 147.5 89.2305C148.242 89.7242 148.242 89.7242 149 90.2279C149.021 89.0644 149.02 87.9004 149 86.737C148.835 86.5724 148.67 86.4078 148.5 86.2383Z" fill="#FF5289"/>
<path d="M217 35.3711C217 35.8648 217 36.3585 217 36.8672C218.65 36.8672 220.3 36.8672 222 36.8672C219 35.3711 219 35.3711 217 35.3711Z" fill="#FF5289"/>
</g>
<defs>
<clipPath id="clip0_23_799">
<rect width="455" height="142" fill="white" transform="matrix(-1 0 0 1 455 0)"/>
</clipPath>
</defs>
</svg>
